<svg xmlns="http://www.w3.org/2000/svg" version="1.1" xmlns:xlink="http://www.w3.org/1999/xlink" width="381" height="236"><svg width="381" height="236" viewBox="0 0 381 236" fill="none" xmlns="http://www.w3.org/2000/svg">
<path d="M283.401 82.2136C282.823 74.599 281.865 67.0052 280.573 59.4844C279.651 54.1615 278.583 48.8542 277.281 43.6094C277.141 43.6511 277.005 43.6875 276.859 43.7292C267.323 46.5261 257.948 49.9792 248.823 53.9323C241.75 56.9896 234.885 60.4532 228.089 64.1146C240.167 52.6667 255.995 44.3802 271.682 39.073C274.859 37.9844 278.302 37.0573 281.563 36.1771C282.453 39.4271 283.365 42.9011 284.01 46.1875C285.568 53.875 286.495 61.7292 286.698 69.5678C286.922 78.5834 286.255 87.6875 284.125 96.4584C283.964 91.6928 283.771 86.9532 283.401 82.2136Z" fill="#F5CAC7"></path>
<mask id="SvgjsMask1058" style="mask-type:luminance" maskUnits="userSpaceOnUse" x="14" y="141" width="167" height="81">
<path d="M14.2865 141.151H180.49V221.151H14.2865V141.151Z" fill="white"></path>
</mask>
<g mask="url(#mask0_696_156)">
<path d="M15.6928 155.464C25.1042 149.938 35.1563 145.458 45.5574 142.156L46.5626 141.844C45.2917 142.443 44.0313 143.057 42.7761 143.661C34.573 147.693 26.573 152.198 19.0053 157.318C24.9167 165.557 31.5834 173.297 38.7605 180.448C46.3074 187.911 54.5522 194.719 63.5313 200.391C79.6199 210.51 95.9063 215.76 115.005 215.505C127.609 215.375 140.12 213.01 152.172 209.391C161.568 206.609 170.734 202.802 179.62 198.786L179.313 198.823L179.615 198.74L179.755 198.703L179.63 198.786C178.516 199.521 176.969 200.443 175.859 201.141C153.182 214.844 125.094 223.646 98.4532 220.073C78.7449 217.458 60.7032 207.427 45.8595 194.516C33.7917 183.974 23.4532 171.521 15.1876 157.807L14.2917 156.297L15.698 155.458L15.6928 155.464Z" fill="#F5CAC7"></path>
</g>
<mask id="SvgjsMask1057" style="mask-type:luminance" maskUnits="userSpaceOnUse" x="200" y="141" width="167" height="81">
<path d="M200.49 141.151H366.287V221.151H200.49V141.151Z" fill="white"></path>
</mask>
<g mask="url(#mask1_696_156)">
<path d="M254.422 214.792C265.828 216.073 277.51 215.76 288.672 212.984C304.552 209.057 318.885 200.563 331.448 190.203C342.974 180.63 353.203 169.469 361.958 157.318C353.229 151.406 343.943 146.328 334.401 141.849C345.161 145.172 355.552 149.771 365.266 155.469L366.667 156.307L365.776 157.807C354.099 177.042 338.438 194.167 319.354 206.234C308.182 213.25 295.635 218.339 282.51 220.078C258.031 223.333 233.036 216.318 211.552 204.828C208.495 203.198 205.521 201.411 202.594 199.563C202.172 199.302 201.75 199.042 201.344 198.766C210.292 202.943 219.385 206.568 228.786 209.401C237.156 211.912 245.734 213.802 254.422 214.787V214.792Z" fill="#F5CAC7"></path>
</g>
<path d="M119.073 48.6979C114 46.8334 108.87 45.1042 103.677 43.6094C103.646 43.75 103.609 43.8906 103.573 44.0313C101.229 53.6927 99.5261 63.5365 98.3855 73.4167C97.5001 81.0729 97.0678 88.7448 96.8386 96.4584C92.9636 80.2761 93.7032 62.4323 96.9532 46.1875C97.599 42.8959 98.5157 39.4427 99.3855 36.1823C102.646 37.0365 106.109 37.9844 109.281 39.0677C116.719 41.5677 123.979 44.6875 130.875 48.4323C138.797 52.7448 146.344 57.875 152.875 64.1094C148.667 61.8594 144.469 59.6615 140.177 57.6094C133.297 54.3073 126.234 51.3386 119.073 48.6979Z" fill="#F5CAC7"></path>
<path d="M194.615 192.865C219.802 197.755 246.776 198.422 271.386 190.276C300.182 181.01 320.016 156.401 332.339 129.724C333.599 127.01 334.823 124.172 335.943 121.396C337.833 116.682 339.552 111.875 341.021 107.005C335.068 105.495 329.005 104.349 322.932 103.479C304.162 100.854 284.719 101.016 266.359 106.115C260.63 107.729 255.016 109.828 249.698 112.521C244.323 115.208 239.276 118.505 234.526 122.187C239.328 117.604 244.719 113.516 250.521 110.229C253.932 108.271 257.583 106.531 261.234 105.062C279.734 97.6927 300.245 96.1302 319.943 97.9271C329.422 98.7969 338.849 100.458 348.031 102.964C345.672 112.51 342.438 121.828 338.432 130.807C330.958 147.51 320.74 163.266 307.073 175.578C299.625 182.302 291.063 187.844 281.766 191.651C260 200.573 235.537 201.141 212.615 197.167C207.057 196.188 201.49 194.927 196.078 193.333L194.604 192.885L194.62 192.87L194.615 192.865Z" fill="#F5CAC7"></path>
<path d="M149.089 120.563C141.76 88.3125 155.708 55.4167 175.323 30.2188C179.984 24.2031 185.026 18.5 190.495 13.2031C196.172 18.8438 201.365 24.9323 206.13 31.3385C210.49 37.2031 214.49 43.3646 217.979 49.7813C224.948 62.5781 230.099 76.5573 231.745 91.0833C231.964 93.1146 232.141 95.2552 232.208 97.2969C232.302 99.3698 232.271 101.448 232.203 103.516C231.964 98.3542 231.318 93.2292 230.24 88.1927C229.297 83.7031 228.005 79.1875 226.484 74.8594C223.594 66.6458 219.781 58.7604 215.37 51.2604C211.474 44.651 207.063 38.3333 202.302 32.3229C200.729 30.3229 199.068 28.349 197.406 26.4167C195.182 23.849 192.885 21.3333 190.51 18.9167C170.573 40.0625 153.729 67.5365 150.776 96.8177C149.906 105.609 150.557 114.505 152.344 123.161C155.38 137.755 161.51 151.563 169.057 164.37C161.104 153.13 154.729 140.755 150.833 127.5C150.151 125.25 149.615 122.854 149.094 120.568L149.089 120.563Z" fill="#F5CAC7"></path>
<path d="M169.057 164.37C171.688 167.76 174.354 171.089 177.135 174.344C181.344 179.281 185.76 184.078 190.417 188.604C190.74 188.25 191.068 187.901 191.37 187.563C199.245 178.849 206.349 169.427 212.531 159.443C222.958 142.505 230.651 123.49 232.208 103.526C233.594 121.234 228.13 139.203 219.964 154.771C214.609 164.964 207.927 174.458 200.359 183.125C197.229 186.703 193.896 190.13 190.412 193.391L189.292 192.198C185.328 188.01 181.677 183.542 178.271 178.891C174.906 174.255 171.766 169.427 169.057 164.375V164.37Z" fill="#F5CAC7"></path>
<path d="M100.672 192.24C76.3333 182.87 58.3229 162 46.6094 139.271C44.9427 136.073 43.3438 132.677 41.9063 129.37C38.1823 120.839 35.1771 112 32.9375 102.958C43.3073 100.13 53.974 98.3854 64.6927 97.625C83.5573 96.3334 102.984 98.1927 120.594 105.401C122.797 106.323 125.12 107.391 127.24 108.474C128.49 109.115 130.042 109.984 131.25 110.677C136.74 113.901 141.87 117.802 146.453 122.188C141.698 118.505 136.651 115.208 131.276 112.521C125.958 109.828 120.344 107.724 114.609 106.115C96.8333 101.177 78.0208 100.87 59.8021 103.24C53.1354 104.13 46.474 105.354 39.9479 107.01C40.8333 109.953 41.8125 112.87 42.8594 115.755C47 127.083 52.2292 138.083 58.7396 148.245C67.8646 162.505 79.6875 175.37 94.5417 183.667C107.724 191.021 122.682 194.646 137.656 195.922C145.755 196.609 153.911 196.625 162.031 196.089C170.177 195.547 178.307 194.479 186.365 192.891L184.891 193.339C184.396 193.484 183.901 193.62 183.406 193.76C180.438 194.604 177.438 195.339 174.422 195.99C150.156 201.125 124.063 201.323 100.677 192.25L100.672 192.24Z" fill="#F5CAC7"></path>
<path d="M290.932 74.7292C290.313 66.5 289.271 58.2917 287.875 50.1563C286.885 44.4011 285.724 38.6615 284.323 32.9948C284.167 33.0417 284.021 33.0781 283.865 33.125C273.552 36.1459 263.417 39.8802 253.552 44.1511C245.906 47.4584 238.484 51.2031 231.141 55.1615C244.198 42.7865 261.307 33.8281 278.266 28.0886C281.703 26.9167 285.427 25.9063 288.948 24.9636C289.911 28.474 290.896 32.2292 291.594 35.7813C293.281 44.0938 294.281 52.5834 294.5 61.0573C294.745 70.8021 294.021 80.6459 291.714 90.1302C291.547 84.974 291.333 79.8542 290.932 74.7292Z" fill="#B5A880"></path>
<mask id="SvgjsMask1056" style="mask-type:luminance" maskUnits="userSpaceOnUse" x="0" y="138" width="180" height="88">
<path d="M0 138.484H179.156V225.151H0V138.484Z" fill="white"></path>
</mask>
<g mask="url(#mask2_696_156)">
<path d="M1.51567 153.922C11.6928 147.948 22.5573 143.104 33.8021 139.531L34.8907 139.193C33.5157 139.839 32.1563 140.505 30.7969 141.161C21.9271 145.521 13.2813 150.391 5.099 155.927C11.4896 164.828 18.698 173.198 26.4584 180.927C34.6146 189 43.5313 196.354 53.2396 202.49C70.6303 213.427 88.2344 219.104 108.885 218.833C122.51 218.693 136.031 216.13 149.063 212.224C159.219 209.214 169.13 205.094 178.74 200.755L178.412 200.792L178.734 200.703L178.885 200.661L178.75 200.755C177.542 201.547 175.87 202.547 174.672 203.302C150.156 218.115 119.792 227.63 90.9896 223.766C69.6823 220.943 50.1771 210.099 34.1303 196.135C21.0886 184.745 9.90629 171.276 0.973999 156.453L0.00524902 154.818L1.52087 153.911L1.51567 153.922Z" fill="#B5A880"></path>
</g>
<mask id="SvgjsMask1055" style="mask-type:luminance" maskUnits="userSpaceOnUse" x="201" y="138" width="181" height="88">
<path d="M201.823 138.484H381V225.151H201.823V138.484Z" fill="white"></path>
</mask>
<g mask="url(#mask3_696_156)">
<path d="M259.609 218.057C271.938 219.448 284.568 219.104 296.635 216.104C313.802 211.865 329.297 202.677 342.88 191.474C355.344 181.13 366.396 169.057 375.865 155.927C366.427 149.536 356.385 144.042 346.073 139.198C357.708 142.792 368.938 147.766 379.443 153.927L380.953 154.828L379.99 156.453C367.365 177.25 350.438 195.766 329.802 208.807C317.729 216.391 304.162 221.896 289.974 223.776C263.505 227.292 236.49 219.714 213.26 207.286C209.953 205.526 206.74 203.594 203.573 201.599C203.12 201.313 202.667 201.031 202.224 200.734C211.901 205.25 221.729 209.167 231.896 212.229C240.943 214.948 250.214 216.99 259.609 218.052V218.057Z" fill="#B5A880"></path>
</g>
<path d="M113.281 38.4948C107.797 36.4792 102.25 34.6094 96.6406 32.9948C96.6042 33.1459 96.5625 33.3021 96.526 33.4531C93.9896 43.8959 92.151 54.5417 90.9167 65.2188C89.9583 73.4948 89.4896 81.7917 89.2448 90.1302C85.0573 72.6302 85.8542 53.3438 89.3698 35.7813C90.0625 32.224 91.0573 28.4896 92 24.9636C95.5208 25.8906 99.2656 26.9115 102.698 28.0886C110.74 30.7865 118.583 34.1615 126.042 38.2084C134.604 42.8698 142.766 48.4167 149.828 55.1563C145.276 52.724 140.734 50.3438 136.094 48.1302C128.661 44.5573 121.026 41.349 113.286 38.4948H113.281Z" fill="#B5A880"></path>
<path d="M194.953 194.354C222.182 199.641 251.344 200.365 277.948 191.557C309.078 181.536 330.521 154.932 343.839 126.089C345.208 123.156 346.526 120.089 347.74 117.094C349.781 111.99 351.641 106.797 353.224 101.531C346.797 99.8958 340.24 98.6562 333.677 97.7187C313.38 94.8802 292.359 95.0573 272.516 100.568C266.318 102.312 260.25 104.583 254.5 107.495C248.688 110.401 243.234 113.969 238.094 117.943C243.286 112.99 249.115 108.568 255.391 105.016C259.073 102.896 263.026 101.021 266.974 99.4323C286.974 91.4635 309.146 89.7708 330.443 91.7135C340.688 92.6615 350.88 94.4531 360.813 97.1615C358.255 107.484 354.76 117.557 350.432 127.26C342.349 145.323 331.302 162.354 316.531 175.667C308.474 182.932 299.219 188.927 289.167 193.042C265.635 202.688 239.193 203.297 214.406 199.005C208.401 197.948 202.385 196.583 196.531 194.859L194.938 194.375L194.958 194.359L194.953 194.354Z" fill="#B5A880"></path>
<mask id="SvgjsMask1054" style="mask-type:luminance" maskUnits="userSpaceOnUse" x="143" y="0" width="94" height="164">
<path d="M143.156 0H236.49V163.818H143.156V0Z" fill="white"></path>
</mask>
<g mask="url(#mask4_696_156)">
<path d="M145.734 116.188C137.807 81.3229 152.891 45.7604 174.094 18.5156C179.13 12.0156 184.583 5.84898 190.495 0.119812C196.635 6.22398 202.245 12.8021 207.401 19.7292C212.109 26.0729 216.432 32.7292 220.208 39.6667C227.74 53.5 233.312 68.6146 235.094 84.3229C235.323 86.5104 235.521 88.8281 235.589 91.0365C235.693 93.2813 235.656 95.5261 235.583 97.7604C235.323 92.1771 234.63 86.6354 233.469 81.1927C232.448 76.3386 231.047 71.4531 229.401 66.7761C226.281 57.9011 222.161 49.3698 217.385 41.2656C213.172 34.1198 208.411 27.2917 203.26 20.7917C201.557 18.6302 199.766 16.4948 197.969 14.4063C195.562 11.6354 193.078 8.91148 190.516 6.2969C168.958 29.1615 150.75 58.8646 147.557 90.5156C146.615 100.021 147.323 109.641 149.25 118.995C152.536 134.776 159.161 149.703 167.323 163.552C158.724 151.401 151.828 138.016 147.62 123.688C146.88 121.255 146.302 118.667 145.734 116.193V116.188Z" fill="#B5A880"></path>
</g>
<path d="M167.323 163.552C170.167 167.214 173.047 170.813 176.052 174.333C180.599 179.672 185.38 184.854 190.411 189.745C190.76 189.365 191.115 188.99 191.443 188.62C199.953 179.203 207.635 169.016 214.318 158.219C225.589 139.906 233.912 119.354 235.589 97.7709C237.089 116.917 231.188 136.339 222.359 153.167C216.563 164.188 209.344 174.458 201.156 183.823C197.776 187.693 194.177 191.401 190.406 194.922L189.193 193.63C184.911 189.104 180.964 184.271 177.281 179.25C173.646 174.234 170.245 169.016 167.318 163.552H167.323Z" fill="#B5A880"></path>
<path d="M93.3855 193.682C67.073 183.552 47.6094 160.984 34.9375 136.411C33.1407 132.958 31.4115 129.281 29.8542 125.708C25.8334 116.484 22.5834 106.927 20.1615 97.1562C31.3698 94.0989 42.9063 92.2083 54.4896 91.3906C74.8855 89.9896 95.8907 92.0052 114.922 99.7968C117.307 100.792 119.818 101.943 122.115 103.12C123.464 103.812 125.141 104.75 126.448 105.5C132.38 108.984 137.927 113.203 142.88 117.943C137.745 113.969 132.281 110.401 126.474 107.495C120.724 104.583 114.656 102.307 108.458 100.568C89.2396 95.2291 68.9011 94.901 49.2032 97.4583C41.9948 98.4218 34.7969 99.7448 27.7396 101.536C28.698 104.714 29.7552 107.875 30.8907 110.99C35.3646 123.24 41.0157 135.13 48.0573 146.12C57.9219 161.531 70.7032 175.443 86.7605 184.406C101.01 192.359 117.188 196.281 133.375 197.661C142.125 198.406 150.948 198.417 159.724 197.839C168.531 197.255 177.318 196.099 186.031 194.38L184.438 194.865C183.901 195.021 183.365 195.172 182.833 195.323C179.62 196.234 176.38 197.031 173.12 197.729C146.885 203.286 118.677 203.495 93.3907 193.687L93.3855 193.682Z" fill="#B5A880"></path>
<mask id="SvgjsMask1053" style="mask-type:luminance" maskUnits="userSpaceOnUse" x="117" y="61" width="146" height="175">
<path d="M117.823 61.1511H262.818V235.484H117.823V61.1511Z" fill="white"></path>
</mask>
<g mask="url(#mask5_696_156)">
<path fill-rule="evenodd" clip-rule="evenodd" d="M120.266 225.276C120.214 225.51 120.021 225.693 119.781 225.734C119.547 225.771 119.307 225.661 119.177 225.458C118.448 224.229 117.818 221.906 118.068 217.505C118.068 217.505 119.047 214.37 120.912 212.125C120.912 212.125 121.292 211.427 121.62 210.547C122.292 208.75 123.495 207.203 125.073 206.104C126.031 205.437 127.198 204.646 128.547 203.786C129.849 202.948 131 201.891 131.943 200.656C134.927 196.745 141.448 187.995 142.448 184.995C142.448 184.995 146.792 175.937 149.943 173.786C153.089 171.635 156.052 155.891 156.052 150.026C156.052 150.026 152.292 126.458 169.922 122.984C169.922 122.984 177.005 121.521 183.974 117.036C184.068 116.974 184.167 116.922 184.266 116.875C184.651 116.693 185.833 115.797 186.427 111.635C186.5 111.135 186.333 110.625 185.974 110.266C184.458 108.74 181.609 106.161 178.323 94.2448C177.719 92.0573 177.495 89.7864 177.667 87.526C178.078 82.0729 179.802 72.5052 186.844 71.3646C186.844 71.3646 184.156 67.3229 186.719 65.1094C186.761 65.0781 186.802 65.0416 186.839 65.0052C186.844 65.0104 194.12 58.4844 199.386 64.9948C199.396 65.0104 199.412 65.0208 199.422 65.0364C199.714 65.3594 202.516 68.6041 199.396 71.3646C199.396 71.3646 210.136 73.4896 207.875 90.6146C207.875 90.6146 207.042 102.458 200.432 110.01C199.724 110.823 199.443 111.922 199.677 112.979C199.906 113.984 200.5 115.229 201.901 116.458C202.203 116.729 202.542 116.953 202.906 117.125C205.276 118.266 216.646 123.687 222.318 126.448C223.599 127.073 224.609 128.146 225.162 129.458C226.438 132.536 228.557 138.604 228.531 145C228.526 145.349 228.537 145.703 228.557 146.052C228.766 149.495 230.068 167.427 234.563 173.375C234.807 173.703 235.037 174.047 235.245 174.401C237.234 177.812 246.969 194.552 250.261 200.328C250.708 201.13 251.297 201.849 251.995 202.443C252.948 203.255 254.406 204.51 255.688 205.667C257.406 207.219 258.766 209.135 259.667 211.271C261.141 214.771 263.156 220.307 262.047 222.125C261.63 222.797 261.318 223.526 261.115 224.286C260.938 224.927 260.693 225.714 260.359 226.562C260.307 226.687 260.177 226.766 260.042 226.75C259.917 226.724 259.802 226.677 259.698 226.604C258.932 226.047 258.891 224.141 258.891 224.141C258.886 224.089 258.849 224.042 258.797 224.031C258.75 224.016 258.693 224.036 258.667 224.083C258.484 224.359 258.292 224.562 258.099 224.698C257.849 224.875 257.594 224.937 257.349 224.932H257.344C257.162 224.932 256.979 224.885 256.818 224.802C256.662 224.714 256.521 224.594 256.417 224.443C256.313 224.292 256.245 224.12 256.219 223.943C256.198 223.766 256.214 223.583 256.276 223.411C256.521 222.687 256.656 221.573 256.719 220.417C256.849 218.24 256.74 215.922 256.74 215.922C256.734 215.792 256.625 215.693 256.5 215.698C256.37 215.703 256.266 215.807 256.266 215.932C256.261 217.078 255.922 218.13 255.49 219.021C254.859 220.312 254.021 221.271 253.646 221.661C253.578 221.729 253.495 221.786 253.406 221.828C253.323 221.87 253.224 221.896 253.125 221.906C252.969 221.922 252.844 221.891 252.745 221.823C252.625 221.745 252.552 221.615 252.495 221.49C252.432 221.339 252.401 221.177 252.401 221.016C252.401 220.859 252.432 220.698 252.495 220.547H252.5C253.193 218.875 253.552 216.37 253.438 214.13C253.349 212.401 252.969 210.839 252.281 209.906C251.787 209.229 251.375 208.948 251.063 208.865C250.714 208.771 250.443 208.891 250.24 209.099C250.146 209.193 250.073 209.307 250.026 209.427C249.979 209.547 249.953 209.682 249.953 209.812C249.958 209.948 249.99 210.078 250.042 210.198C250.094 210.318 250.172 210.427 250.266 210.516C250.724 210.943 250.88 211.698 250.917 212.495C250.984 214.047 250.547 215.766 250.521 215.875C250.427 216.151 250.302 216.339 250.156 216.453C249.969 216.594 249.745 216.615 249.526 216.578C249.193 216.516 248.906 216.344 248.703 216.099C248.5 215.854 248.375 215.536 248.375 215.198C248.359 214.021 247.537 212.125 246.401 210.307C245.646 209.109 244.761 207.943 243.88 207.036C243.823 206.979 243.807 206.891 243.833 206.818C245.083 203.505 242.474 201.781 242.12 201.562C242.104 201.557 242.094 201.547 242.078 201.536C237.203 198.349 225.094 182.068 224.521 181.297C224.5 181.266 224.479 181.24 224.453 181.208C218.432 173.286 215.948 151.578 215.948 151.578C207.344 184.839 218.896 201.766 220.708 204.13C220.787 204.229 220.776 204.37 220.688 204.458C219.948 205.203 219.214 205.74 218.307 206.245C215.552 207.786 212.386 208.297 210.49 208.464C210.042 208.5 209.589 208.505 209.141 208.469C208.688 208.437 208.245 208.37 207.802 208.266C206.073 207.854 204.667 207.833 203.531 208.021C201.505 208.354 200.339 209.354 199.74 210.047V210.052C199.38 210.469 198.974 210.849 198.531 211.172C198.089 211.5 197.609 211.776 197.104 211.995C196.302 212.339 195.412 212.646 194.521 212.922C193.031 213.375 191.547 213.729 190.511 213.948C190.089 214.042 189.656 214.089 189.224 214.099C188.792 214.109 188.354 214.078 187.927 214.01C187.927 214.005 187.927 214.005 187.927 214.005C186.057 213.698 184.266 213.417 182.537 213.156C179.641 212.729 176.943 212.37 174.427 212.068C171.464 211.714 168.755 211.443 166.281 211.24C161.323 210.839 157.287 210.714 154.005 210.76C141.406 210.948 139.891 213.729 139.891 213.729C139.87 213.76 139.886 213.802 139.917 213.823C139.953 213.844 139.995 213.828 140.011 213.797C140.011 213.797 141.557 211.125 154.011 211.104C157.281 211.094 161.297 211.276 166.24 211.729C168.708 211.953 171.406 212.245 174.354 212.62C176.87 212.937 179.563 213.312 182.448 213.75C184.172 214.01 185.964 214.286 187.828 214.594C188.297 214.672 188.766 214.703 189.24 214.687C189.708 214.677 190.177 214.62 190.636 214.516C191.682 214.281 193.177 213.917 194.682 213.443C195.589 213.156 196.5 212.833 197.313 212.474C197.854 212.234 198.365 211.932 198.833 211.578C199.307 211.224 199.734 210.818 200.115 210.365C200.656 209.714 201.734 208.786 203.604 208.458C204.693 208.266 206.047 208.271 207.714 208.641C208.177 208.745 208.646 208.812 209.115 208.839C209.583 208.87 210.052 208.859 210.521 208.812C210.526 208.812 210.526 208.812 210.526 208.812C212.443 208.609 215.651 208.047 218.422 206.443C219.406 205.87 220.339 205.167 221.136 204.302C221.734 204.016 222.813 203.568 223.771 203.177C224.807 202.74 225.932 202.547 227.057 202.62C229.031 202.745 230.943 202.13 231.927 201.74C232.505 201.505 233.12 201.385 233.745 201.38C238.63 201.333 239.271 204.589 239.344 205.828C239.344 205.932 239.281 206.026 239.182 206.062C238.057 206.464 237 206.974 236.031 207.536C233.859 208.797 232.109 210.333 230.88 211.583C230.281 212.198 229.583 212.693 228.818 213.057C228.057 213.417 227.234 213.646 226.386 213.724C224.068 213.948 221.224 214.818 218.443 215.911C213.37 217.896 208.495 220.589 207.328 221.245L206.766 221.594C205.484 222.432 203.458 223.302 200.948 224.198C198.313 225.141 195.141 226.094 191.708 227.036C187.073 228.302 181.974 229.536 177.083 230.651C170.438 232.161 164.182 233.448 160.026 234.271C159.948 234.286 159.87 234.297 159.792 234.297C158.63 234.318 157.511 234.328 156.453 234.333C156.182 234.333 155.917 234.344 155.651 234.375C153.427 234.594 142.495 235.609 134.953 235.25C130.427 235.026 126.162 233.062 123.047 229.771C122.594 229.292 122.094 228.719 121.714 228.193C121.162 227.495 120.636 226.995 120.011 226.427C120.011 226.427 120.557 224.964 120.615 224.484C120.755 224.661 120.896 224.802 121.042 224.906C121.344 225.125 121.651 225.214 121.948 225.214C122.177 225.214 122.406 225.161 122.604 225.057C122.807 224.958 122.984 224.807 123.125 224.62C123.261 224.432 123.349 224.214 123.386 223.99C123.422 223.766 123.401 223.531 123.328 223.307C123.104 222.604 123.005 221.516 122.958 220.401C122.932 219.661 122.927 218.911 122.938 218.245C123.052 218.594 123.188 218.927 123.339 219.245C123.984 220.615 124.859 221.63 125.245 222.047C125.359 222.167 125.495 222.26 125.641 222.333C125.787 222.406 125.948 222.453 126.109 222.469C126.422 222.5 126.667 222.427 126.865 222.302C127.078 222.161 127.229 221.948 127.328 221.719C127.328 221.714 127.328 221.714 127.328 221.714C127.427 221.495 127.474 221.255 127.474 221.021C127.479 220.781 127.432 220.542 127.339 220.323C126.781 218.974 126.458 217.057 126.427 215.203C126.396 213.214 126.693 211.286 127.458 210.234C127.781 209.792 128.083 209.552 128.37 209.458C128.776 209.328 129.125 209.516 129.386 209.74C129.438 209.781 129.479 209.833 129.505 209.891C129.531 209.948 129.547 210.01 129.552 210.073C129.557 210.135 129.547 210.203 129.526 210.26C129.5 210.318 129.469 210.375 129.422 210.422C128.932 210.932 128.636 211.724 128.479 212.562C128.167 214.182 128.349 215.953 128.349 215.953C128.349 215.974 128.354 215.99 128.359 216.01C128.474 216.323 128.62 216.552 128.792 216.714C129.026 216.932 129.297 217.036 129.578 217.062C129.823 217.083 130.068 217.047 130.292 216.958C130.511 216.87 130.714 216.734 130.88 216.552C131.042 216.37 131.162 216.156 131.224 215.927C131.287 215.698 131.297 215.453 131.25 215.214C131.115 214.516 131.302 213.719 131.761 212.87C132.24 212 133 211.083 134.016 210.172C134.125 210.073 134.255 210 134.401 209.958C134.734 209.854 135.38 209.62 136.078 209.13C136.292 208.979 136.516 208.807 136.734 208.604C136.781 208.557 136.844 208.536 136.906 208.531C156.698 207.911 164 204.307 165.563 203.38C165.854 203.208 166.099 202.969 166.281 202.682C169.011 198.276 173.287 173.609 173.573 171.932C173.599 171.786 173.615 171.641 173.62 171.495C173.792 167.328 169.344 148.948 169.344 148.948C170.552 154.323 161.38 178.417 160.37 181.042C160.214 181.448 160.037 181.844 159.844 182.229C155.521 190.932 139.979 203.781 137.448 205.839C137.245 206.005 137.125 206.255 137.12 206.516C137.12 206.896 137.063 207.234 136.979 207.526C136.813 208.104 136.448 208.604 135.948 208.943C134.969 209.599 134.104 209.755 134.104 209.755C134.083 209.76 134.063 209.771 134.042 209.786C132.88 210.766 132.005 211.76 131.469 212.708C130.943 213.63 130.734 214.51 130.875 215.286C130.906 215.464 130.896 215.646 130.844 215.818C130.792 215.99 130.703 216.146 130.578 216.276C130.458 216.411 130.307 216.51 130.141 216.568C129.974 216.63 129.797 216.656 129.62 216.635C129.427 216.615 129.25 216.547 129.099 216.396C128.974 216.281 128.875 216.109 128.792 215.885C128.776 215.672 128.672 214.099 128.964 212.661C129.115 211.927 129.365 211.229 129.797 210.786C129.896 210.693 129.969 210.573 130.016 210.448C130.068 210.323 130.089 210.187 130.083 210.047C130.078 209.911 130.042 209.776 129.984 209.656C129.927 209.531 129.844 209.422 129.74 209.333C129.354 208.995 128.818 208.74 128.198 208.932C127.828 209.047 127.422 209.333 127 209.901C126.318 210.833 125.938 212.401 125.849 214.13C125.74 216.37 126.104 218.875 126.797 220.547H126.802C126.865 220.698 126.896 220.859 126.896 221.021C126.896 221.177 126.865 221.339 126.802 221.49C126.75 221.62 126.672 221.75 126.552 221.828C126.453 221.896 126.328 221.927 126.167 221.911C126.068 221.901 125.969 221.875 125.88 221.833C125.792 221.792 125.714 221.734 125.641 221.667C125.266 221.276 124.427 220.318 123.797 219.021C123.365 218.13 123.026 217.078 123.021 215.932C123.021 215.807 122.922 215.708 122.797 215.703C122.672 215.703 122.568 215.797 122.557 215.922C122.557 215.922 122.453 218.24 122.578 220.417C122.646 221.573 122.776 222.687 123.021 223.406C123.021 223.411 123.021 223.411 123.021 223.411C123.083 223.583 123.099 223.766 123.078 223.943C123.052 224.12 122.984 224.292 122.88 224.443C122.776 224.599 122.636 224.719 122.474 224.802C122.313 224.891 122.136 224.937 121.948 224.937C121.698 224.943 121.443 224.875 121.193 224.698C121 224.562 120.807 224.365 120.625 224.083C120.599 224.042 120.547 224.021 120.495 224.031C120.443 224.047 120.406 224.094 120.406 224.146C120.406 224.146 120.396 224.687 120.266 225.276ZM259.594 226.75C259.906 226.969 260.016 227.375 259.854 227.719C258.386 230.812 255.698 234.193 250.953 234.333C242.136 234.594 217.375 234.333 202.464 232.094C202.464 232.094 177.891 233.917 161.193 234.271C165.318 233.5 171.083 232.38 177.177 231.068C182.083 230.005 187.203 228.812 191.854 227.573C195.307 226.651 198.5 225.703 201.151 224.766C203.719 223.854 205.781 222.943 207.089 222.083C207.094 222.083 207.094 222.083 207.094 222.083L207.62 221.755C208.771 221.089 213.599 218.38 218.62 216.359C221.354 215.26 224.141 214.359 226.422 214.115C227.318 214.021 228.182 213.771 228.979 213.38C229.771 212.99 230.495 212.464 231.115 211.812C232.313 210.557 234.026 209.016 236.151 207.74C237.13 207.151 239.344 206.297 239.344 206.297C241 205.656 242.75 206.516 243.427 206.917C243.609 207.026 243.771 207.161 243.912 207.312C244.714 208.203 245.511 209.307 246.188 210.437C247.255 212.219 248.031 214.057 248.026 215.198C248.021 215.625 248.167 216.021 248.417 216.333C248.672 216.646 249.031 216.875 249.453 216.958C249.781 217.026 250.109 216.984 250.396 216.776C250.599 216.625 250.787 216.38 250.917 216.005C250.922 216 250.922 215.995 250.922 215.99C250.922 215.99 251.438 214.146 251.391 212.479C251.365 211.542 251.151 210.661 250.615 210.146C250.568 210.104 250.537 210.052 250.511 209.99C250.484 209.932 250.469 209.87 250.469 209.807C250.469 209.745 250.484 209.677 250.505 209.62C250.531 209.562 250.568 209.51 250.609 209.464C250.714 209.365 250.859 209.328 251.063 209.432C251.276 209.552 251.531 209.802 251.839 210.229C252.604 211.286 252.901 213.214 252.865 215.203C252.833 217.057 252.511 218.969 251.953 220.318C251.859 220.542 251.813 220.781 251.813 221.021C251.813 221.255 251.859 221.495 251.958 221.719C252.057 221.948 252.208 222.167 252.427 222.307C252.62 222.432 252.87 222.51 253.182 222.474C253.349 222.458 253.511 222.411 253.656 222.339C253.802 222.271 253.938 222.172 254.052 222.052C254.443 221.635 255.318 220.62 255.964 219.245C256.104 218.943 256.234 218.62 256.349 218.281C256.359 218.943 256.354 219.677 256.328 220.401C256.281 221.516 256.182 222.599 255.958 223.307C255.886 223.526 255.87 223.76 255.906 223.99C255.938 224.214 256.026 224.432 256.167 224.62C256.302 224.812 256.484 224.958 256.688 225.062C256.886 225.161 257.115 225.219 257.344 225.214C257.641 225.214 257.953 225.13 258.25 224.911C258.396 224.802 258.542 224.667 258.677 224.49C258.75 225.089 258.974 226.323 259.594 226.75ZM186.844 111.167C186.844 111.167 187.927 112.422 189.688 113.37C190.297 113.698 190.984 113.979 191.729 114.167C192.198 114.281 192.688 114.359 193.193 114.375C193.578 114.391 193.979 114.37 194.38 114.307C194.938 114.224 195.505 114.062 196.083 113.812C196.589 113.599 197.099 113.312 197.604 112.943C198.24 112.484 198.87 111.896 199.495 111.167C199.521 111.135 199.521 111.094 199.49 111.068C199.464 111.042 199.422 111.042 199.391 111.073C198.719 111.724 198.052 112.234 197.396 112.63C196.891 112.937 196.391 113.172 195.901 113.349C195.448 113.51 195.005 113.62 194.573 113.687C194.104 113.766 193.651 113.786 193.214 113.776C192.62 113.76 192.052 113.682 191.516 113.552C190.927 113.406 190.38 113.208 189.88 112.984C188.104 112.182 186.943 111.073 186.943 111.073C186.917 111.042 186.87 111.042 186.844 111.068C186.818 111.094 186.818 111.135 186.844 111.167Z" fill="#7A5C4A"></path>
<path fill-rule="evenodd" clip-rule="evenodd" d="M186.828 64.9896H186.823L186.703 65.0938C185.906 65.7813 185.615 66.6511 185.589 67.5156C185.542 69.3021 186.646 71.099 186.807 71.349C183.99 71.8177 182.021 73.6354 180.651 75.9948C178.609 79.5208 177.891 84.2604 177.646 87.5261C177.557 88.6563 177.573 89.7917 177.682 90.9167C177.792 92.0417 178 93.1563 178.302 94.25C179.578 98.8854 180.792 102.109 181.885 104.406C183.604 108.021 185.031 109.349 185.958 110.286C186.136 110.464 186.266 110.677 186.344 110.906C186.417 111.135 186.443 111.385 186.406 111.635C186.188 113.156 185.891 114.24 185.583 115.016C185.057 116.339 184.5 116.74 184.261 116.854C184.208 116.875 184.156 116.901 184.109 116.927C184.057 116.953 184.01 116.984 183.964 117.016C181.625 118.521 179.276 119.682 177.188 120.568C173.057 122.313 169.938 122.958 169.917 122.964C164.609 124.01 161.24 126.875 159.12 130.37C154.224 138.443 156.005 149.88 156.031 150.026C156.031 153.25 155.135 159.464 153.807 164.755C153.162 167.318 152.417 169.667 151.62 171.359C151.073 172.521 150.505 173.375 149.927 173.766C148.823 174.521 147.573 176.12 146.417 177.885C144.266 181.156 142.427 184.984 142.427 184.984C142.427 184.984 142.427 184.984 142.427 184.99C142.068 186.057 141.01 187.859 139.656 189.917C137.224 193.615 133.844 198.13 131.922 200.646C131.453 201.26 130.932 201.833 130.365 202.354C129.797 202.875 129.182 203.349 128.531 203.766C127.912 204.167 127.328 204.547 126.787 204.911C126.151 205.333 125.573 205.724 125.057 206.083C124.271 206.635 123.573 207.297 122.99 208.047C122.406 208.802 121.938 209.641 121.599 210.542C121.49 210.833 121.375 211.104 121.271 211.339C121.068 211.781 120.906 212.083 120.891 212.115C120.224 212.917 119.672 213.833 119.234 214.682C118.448 216.203 118.047 217.5 118.047 217.5C118.042 217.5 118.042 217.505 118.042 217.505C117.927 219.542 118 221.135 118.188 222.375C118.401 223.828 118.766 224.807 119.162 225.469C119.224 225.578 119.318 225.656 119.432 225.708C119.542 225.76 119.662 225.776 119.787 225.755C119.912 225.734 120.021 225.677 120.109 225.594C120.198 225.51 120.26 225.401 120.287 225.281C120.333 225.078 120.359 224.885 120.385 224.714C120.422 224.391 120.427 224.151 120.427 224.146C120.432 224.125 120.438 224.104 120.448 224.089C120.464 224.073 120.479 224.063 120.5 224.057C120.521 224.047 120.542 224.052 120.563 224.057C120.578 224.068 120.594 224.078 120.609 224.094C120.693 224.224 120.776 224.339 120.865 224.432C120.969 224.547 121.073 224.641 121.177 224.719C121.302 224.802 121.422 224.865 121.542 224.901C121.677 224.943 121.813 224.964 121.948 224.958C122.042 224.958 122.135 224.948 122.224 224.922C122.318 224.901 122.401 224.865 122.484 224.823C122.568 224.781 122.646 224.729 122.714 224.667C122.781 224.604 122.844 224.536 122.901 224.458C122.953 224.38 122.995 224.302 123.031 224.214C123.063 224.13 123.089 224.036 123.099 223.948C123.109 223.854 123.115 223.766 123.104 223.672C123.094 223.583 123.073 223.49 123.042 223.401C122.932 223.078 122.849 222.672 122.776 222.224C122.693 221.672 122.635 221.052 122.599 220.417C122.557 219.651 122.542 218.865 122.542 218.172C122.537 216.901 122.583 215.938 122.583 215.922C122.583 215.865 122.609 215.818 122.646 215.781C122.688 215.745 122.74 215.724 122.792 215.729C122.849 215.729 122.901 215.75 122.938 215.792C122.974 215.828 122.995 215.88 122.995 215.932C123 216.49 123.083 217.021 123.214 217.526C123.354 218.068 123.552 218.573 123.776 219.031C124.031 219.557 124.323 220.026 124.599 220.427C125.01 221.016 125.401 221.448 125.625 221.682C125.662 221.719 125.698 221.75 125.74 221.781C125.781 221.807 125.828 221.833 125.87 221.854C125.917 221.875 125.964 221.896 126.016 221.906C126.063 221.922 126.115 221.932 126.162 221.932C126.24 221.943 126.307 221.938 126.37 221.927C126.443 221.911 126.505 221.885 126.563 221.849C126.625 221.807 126.677 221.75 126.719 221.693C126.76 221.63 126.797 221.568 126.823 221.5C126.859 221.422 126.88 221.344 126.896 221.266C126.912 221.182 126.922 221.099 126.922 221.016C126.922 220.938 126.912 220.854 126.896 220.771C126.88 220.693 126.854 220.615 126.823 220.536C126.458 219.661 126.182 218.557 126.021 217.385C125.875 216.318 125.818 215.193 125.875 214.13C125.922 213.182 126.057 212.281 126.281 211.51C126.469 210.88 126.714 210.333 127.021 209.911C127.198 209.672 127.37 209.484 127.542 209.339C127.771 209.141 127.995 209.016 128.208 208.953C128.495 208.859 128.771 208.87 129.016 208.943C129.287 209.021 129.526 209.177 129.724 209.349C129.776 209.396 129.823 209.443 129.859 209.495C129.901 209.547 129.938 209.604 129.964 209.667C129.995 209.724 130.016 209.786 130.031 209.854C130.047 209.917 130.057 209.984 130.063 210.052C130.063 210.115 130.057 210.182 130.047 210.25C130.037 210.313 130.021 210.38 129.995 210.438C129.974 210.5 129.943 210.563 129.906 210.615C129.87 210.672 129.828 210.724 129.781 210.771C129.594 210.964 129.443 211.198 129.318 211.464C129.146 211.823 129.031 212.234 128.943 212.656C128.833 213.198 128.776 213.766 128.755 214.266C128.714 215.094 128.76 215.755 128.771 215.891V215.896C128.807 216 128.849 216.089 128.896 216.172C128.953 216.266 129.016 216.349 129.078 216.417C129.156 216.49 129.24 216.542 129.328 216.583C129.417 216.625 129.516 216.646 129.615 216.656H129.62C129.708 216.667 129.797 216.667 129.885 216.656C129.974 216.646 130.063 216.625 130.151 216.594C130.234 216.557 130.313 216.521 130.391 216.469C130.464 216.417 130.537 216.359 130.599 216.292C130.662 216.224 130.714 216.151 130.76 216.073C130.802 215.995 130.839 215.911 130.865 215.823C130.891 215.734 130.906 215.646 130.912 215.557C130.917 215.464 130.912 215.375 130.896 215.281C130.823 214.865 130.849 214.422 130.969 213.953C131.073 213.557 131.245 213.141 131.484 212.719C131.776 212.208 132.167 211.682 132.646 211.151C133.052 210.703 133.526 210.25 134.057 209.802C134.063 209.797 134.073 209.792 134.083 209.786C134.089 209.786 134.099 209.781 134.109 209.781C134.12 209.776 134.516 209.703 135.073 209.453C135.339 209.333 135.641 209.172 135.958 208.964V208.958C136.214 208.792 136.432 208.578 136.604 208.339C136.781 208.094 136.917 207.823 137 207.531C137.042 207.375 137.083 207.208 137.109 207.031C137.13 206.87 137.146 206.698 137.146 206.516C137.146 206.391 137.177 206.266 137.229 206.151C137.287 206.036 137.365 205.938 137.464 205.854C139.078 204.542 146.005 198.823 151.927 192.599C155.276 189.073 158.302 185.385 159.865 182.24C159.964 182.047 160.052 181.849 160.141 181.651C160.229 181.453 160.313 181.255 160.391 181.052C161.073 179.286 165.448 167.797 167.87 158.828C168.938 154.87 169.625 151.401 169.448 149.479C169.927 151.484 171.656 158.839 172.729 164.672C173.276 167.651 173.651 170.229 173.599 171.495C173.594 171.568 173.589 171.641 173.583 171.714C173.573 171.786 173.563 171.854 173.552 171.927C173.354 173.073 171.313 184.854 169.172 193.656C168.162 197.786 167.135 201.26 166.26 202.667C166.172 202.813 166.068 202.938 165.948 203.057C165.828 203.172 165.698 203.276 165.552 203.359C164.583 203.938 161.406 205.542 154.401 206.823C150.12 207.609 144.412 208.276 136.906 208.51C136.87 208.51 136.839 208.516 136.802 208.531C136.771 208.542 136.745 208.563 136.719 208.589C136.609 208.682 136.505 208.776 136.401 208.859C136.287 208.953 136.172 209.036 136.063 209.115C135.781 209.307 135.505 209.464 135.26 209.589C134.896 209.766 134.589 209.875 134.391 209.938C134.318 209.958 134.25 209.984 134.182 210.026C134.115 210.063 134.057 210.104 134 210.156C133.531 210.578 133.115 211 132.76 211.417C132.339 211.906 132 212.391 131.74 212.859C131.531 213.25 131.375 213.63 131.281 214C131.172 214.427 131.156 214.839 131.229 215.219C131.25 215.339 131.26 215.453 131.255 215.573C131.25 215.688 131.234 215.807 131.203 215.922C131.172 216.036 131.125 216.146 131.068 216.25C131.01 216.349 130.943 216.448 130.865 216.536C130.781 216.625 130.693 216.703 130.594 216.771C130.495 216.839 130.391 216.896 130.281 216.938C130.172 216.979 130.057 217.01 129.938 217.031C129.823 217.047 129.703 217.047 129.583 217.036C129.438 217.026 129.297 216.995 129.167 216.938C129.037 216.88 128.917 216.802 128.807 216.698C128.719 216.609 128.63 216.505 128.552 216.375C128.49 216.266 128.432 216.141 128.38 216C128.38 215.995 128.375 215.984 128.375 215.979L128.37 215.953C128.37 215.953 128.297 215.214 128.328 214.255C128.344 213.729 128.391 213.141 128.5 212.568C128.589 212.089 128.729 211.625 128.917 211.219C129.063 210.922 129.234 210.656 129.438 210.438C129.464 210.411 129.484 210.385 129.5 210.359C129.521 210.328 129.537 210.302 129.547 210.271C129.557 210.24 129.568 210.203 129.573 210.172C129.578 210.141 129.578 210.104 129.578 210.073C129.573 210.036 129.568 210.005 129.563 209.974C129.552 209.943 129.542 209.911 129.526 209.88C129.51 209.849 129.495 209.823 129.474 209.797C129.453 209.771 129.427 209.745 129.401 209.724C129.266 209.604 129.104 209.495 128.922 209.438C128.75 209.38 128.563 209.37 128.359 209.438C128.224 209.479 128.078 209.557 127.932 209.677C127.776 209.807 127.609 209.984 127.443 210.219C127.094 210.703 126.839 211.359 126.672 212.125C126.469 213.047 126.391 214.115 126.406 215.203C126.422 216.083 126.5 216.969 126.635 217.807C126.792 218.745 127.021 219.615 127.318 220.328C127.359 220.438 127.396 220.552 127.422 220.667C127.443 220.781 127.453 220.901 127.453 221.021C127.453 221.135 127.438 221.255 127.417 221.37C127.391 221.484 127.354 221.599 127.307 221.708C127.26 221.823 127.198 221.932 127.12 222.031C127.047 222.125 126.953 222.214 126.849 222.281C126.75 222.349 126.63 222.401 126.495 222.427C126.38 222.453 126.255 222.458 126.115 222.448C126.031 222.438 125.953 222.422 125.875 222.401C125.797 222.375 125.724 222.349 125.651 222.313C125.578 222.276 125.51 222.24 125.443 222.188C125.38 222.146 125.318 222.089 125.266 222.031H125.26C125.031 221.781 124.625 221.323 124.203 220.703C123.917 220.281 123.62 219.786 123.359 219.234C123.281 219.073 123.214 218.911 123.146 218.74C123.078 218.578 123.016 218.406 122.958 218.234C122.958 218.224 122.948 218.219 122.932 218.219C122.922 218.224 122.917 218.229 122.917 218.245C122.912 218.583 122.906 218.948 122.912 219.323C122.917 219.677 122.922 220.042 122.938 220.401C122.964 221.016 123.005 221.62 123.073 222.161C123.13 222.599 123.208 222.995 123.307 223.313C123.307 223.318 123.307 223.318 123.307 223.318C123.344 223.422 123.365 223.536 123.375 223.646C123.385 223.76 123.38 223.875 123.365 223.984C123.344 224.099 123.313 224.208 123.271 224.313C123.229 224.417 123.172 224.516 123.104 224.604C123.037 224.698 122.964 224.781 122.875 224.854C122.792 224.927 122.698 224.99 122.594 225.036C122.495 225.089 122.391 225.125 122.281 225.151C122.172 225.177 122.063 225.193 121.948 225.188C121.792 225.188 121.635 225.167 121.479 225.109C121.339 225.063 121.198 224.99 121.057 224.891C120.979 224.833 120.906 224.766 120.828 224.693C120.766 224.625 120.698 224.552 120.63 224.469C120.625 224.458 120.615 224.458 120.609 224.458C120.599 224.464 120.594 224.469 120.589 224.479C120.568 224.651 120.484 224.953 120.391 225.266C120.214 225.823 119.99 226.422 119.99 226.422C119.99 226.427 119.99 226.432 119.995 226.443C120.313 226.729 120.604 227 120.885 227.286C121.156 227.568 121.422 227.865 121.693 228.203C121.885 228.469 122.109 228.745 122.339 229.016C122.568 229.286 122.802 229.547 123.031 229.786C124.589 231.438 126.438 232.75 128.458 233.682C130.484 234.615 132.682 235.161 134.948 235.271C137.484 235.396 140.401 235.359 143.245 235.25C148.859 235.042 154.177 234.542 155.651 234.396C155.787 234.38 155.917 234.37 156.052 234.365C156.182 234.359 156.318 234.354 156.453 234.354C156.995 234.354 157.552 234.349 158.12 234.344C158.667 234.339 159.224 234.333 159.792 234.323C159.833 234.323 159.875 234.318 159.912 234.313C159.953 234.307 159.995 234.302 160.031 234.297C162.333 233.839 165.276 233.24 168.573 232.542C171.234 231.979 174.12 231.349 177.089 230.672C179.51 230.125 181.979 229.542 184.422 228.943C186.912 228.328 189.375 227.698 191.714 227.057C193.328 226.615 194.886 226.167 196.359 225.724C198.016 225.219 199.563 224.719 200.958 224.219C202.297 223.745 203.495 223.271 204.521 222.807C205.417 222.401 206.182 222.005 206.781 221.609L207.344 221.266C208.052 220.865 210.141 219.708 212.807 218.417C214.521 217.589 216.474 216.708 218.453 215.932C220.031 215.313 221.636 214.76 223.146 214.365C224.292 214.063 225.386 213.844 226.386 213.75C226.813 213.708 227.229 213.63 227.636 213.521C228.047 213.406 228.448 213.26 228.828 213.078C229.214 212.896 229.583 212.677 229.927 212.432C230.276 212.182 230.599 211.906 230.896 211.599C231.563 210.922 232.38 210.161 233.339 209.406C234.146 208.766 235.052 208.13 236.047 207.552C236.537 207.271 237.052 206.995 237.583 206.745C238.099 206.505 238.636 206.281 239.193 206.083C239.245 206.068 239.292 206.031 239.318 205.984C239.349 205.938 239.365 205.885 239.365 205.828C239.323 205.036 239.042 203.417 237.573 202.359C236.74 201.76 235.521 201.339 233.745 201.354C233.432 201.359 233.12 201.391 232.813 201.453C232.511 201.51 232.208 201.599 231.917 201.719C231.365 201.938 230.521 202.229 229.531 202.417C228.766 202.568 227.917 202.651 227.057 202.599C226.495 202.563 225.927 202.589 225.375 202.682C224.823 202.781 224.281 202.938 223.761 203.156C223.234 203.37 222.672 203.604 222.177 203.818C221.766 203.99 221.396 204.151 221.13 204.281C221.125 204.281 221.125 204.281 221.12 204.286C220.724 204.714 220.297 205.104 219.844 205.458C219.386 205.818 218.906 206.135 218.406 206.422C217.172 207.141 215.849 207.651 214.589 208.01C213.037 208.458 211.583 208.677 210.521 208.786C210.287 208.813 210.052 208.823 209.818 208.828C209.583 208.833 209.349 208.828 209.115 208.818C208.88 208.802 208.646 208.781 208.412 208.745C208.182 208.714 207.948 208.672 207.719 208.62C206.974 208.453 206.292 208.359 205.672 208.323C204.891 208.281 204.208 208.328 203.599 208.432C202.833 208.573 202.198 208.807 201.677 209.083C200.927 209.484 200.417 209.964 200.099 210.349C199.906 210.578 199.708 210.792 199.495 210.995C199.281 211.193 199.057 211.385 198.823 211.563C198.589 211.74 198.344 211.901 198.089 212.052C197.833 212.198 197.573 212.333 197.302 212.453C196.891 212.635 196.453 212.807 196.005 212.974C195.568 213.13 195.12 213.281 194.677 213.422C193.99 213.641 193.307 213.833 192.667 214C191.901 214.203 191.198 214.37 190.63 214.495C190.401 214.547 190.172 214.583 189.938 214.615C189.703 214.641 189.469 214.661 189.234 214.667C189 214.672 188.766 214.667 188.531 214.651C188.297 214.635 188.068 214.609 187.833 214.573C186.922 214.422 186.026 214.276 185.146 214.141C184.229 213.995 183.333 213.859 182.453 213.724C181.057 213.516 179.714 213.318 178.412 213.135C177.011 212.943 175.662 212.76 174.359 212.599C172.953 212.422 171.599 212.26 170.302 212.115C168.885 211.958 167.531 211.823 166.24 211.703C164.026 211.5 161.995 211.354 160.13 211.25C157.844 211.13 155.813 211.078 154.01 211.078C150.172 211.083 147.37 211.344 145.328 211.698C140.734 212.495 139.99 213.786 139.99 213.786C139.984 213.797 139.974 213.802 139.964 213.807C139.953 213.813 139.938 213.807 139.927 213.802C139.917 213.797 139.912 213.786 139.906 213.776C139.901 213.766 139.906 213.75 139.912 213.74C139.912 213.74 140.635 212.417 145.234 211.536C147.292 211.146 150.125 210.839 154.005 210.781C155.818 210.755 157.854 210.781 160.146 210.88C162.016 210.958 164.052 211.083 166.276 211.266C167.573 211.37 168.932 211.495 170.354 211.641C171.656 211.771 173.01 211.922 174.422 212.089C175.724 212.245 177.078 212.417 178.484 212.604C179.787 212.781 181.141 212.974 182.537 213.182C183.417 213.313 184.313 213.448 185.229 213.594C186.109 213.734 187.01 213.88 187.922 214.031C188.141 214.068 188.354 214.094 188.573 214.109C188.787 214.125 189.005 214.13 189.224 214.125C189.443 214.12 189.656 214.104 189.875 214.078C190.089 214.052 190.302 214.016 190.516 213.974C191.078 213.849 191.776 213.693 192.531 213.5C193.167 213.339 193.849 213.151 194.526 212.943C194.964 212.807 195.406 212.667 195.833 212.51C196.276 212.354 196.703 212.188 197.109 212.016H197.115C197.365 211.906 197.615 211.781 197.854 211.646C198.094 211.505 198.323 211.354 198.547 211.193C198.771 211.026 198.979 210.849 199.182 210.661C199.386 210.474 199.578 210.276 199.761 210.063C200.109 209.656 200.656 209.141 201.464 208.719C202.026 208.427 202.708 208.182 203.537 208.047C204.162 207.943 204.875 207.901 205.677 207.958C206.323 208 207.026 208.104 207.797 208.286C208.016 208.339 208.24 208.38 208.464 208.417C208.688 208.453 208.912 208.479 209.136 208.495C209.365 208.51 209.589 208.516 209.813 208.516C210.042 208.516 210.266 208.505 210.495 208.484C211.542 208.391 212.979 208.193 214.521 207.776C215.771 207.438 217.083 206.953 218.318 206.266C218.776 206.01 219.188 205.75 219.578 205.458C219.964 205.167 220.333 204.844 220.703 204.474C220.75 204.427 220.776 204.365 220.781 204.297C220.787 204.234 220.766 204.167 220.724 204.115C219.49 202.505 213.745 194.146 212.917 178.469C212.537 171.156 213.224 162.25 215.938 151.703C216.073 152.833 217.182 161.703 219.511 169.87C220.776 174.313 222.406 178.552 224.438 181.224L224.5 181.307C224.859 181.792 229.724 188.328 234.511 193.943C237.386 197.318 240.24 200.359 242.068 201.557L242.109 201.583C242.333 201.719 243.484 202.479 243.953 203.875C244.214 204.651 244.261 205.63 243.813 206.807C243.797 206.849 243.792 206.896 243.802 206.938C243.813 206.979 243.833 207.021 243.865 207.052C244.313 207.516 244.766 208.047 245.203 208.62C245.615 209.161 246.016 209.734 246.38 210.318C246.979 211.281 247.495 212.26 247.844 213.146C248.156 213.932 248.344 214.646 248.349 215.198C248.349 215.37 248.38 215.531 248.438 215.682C248.495 215.844 248.578 215.984 248.688 216.115C248.792 216.24 248.917 216.344 249.063 216.427C249.203 216.51 249.354 216.568 249.521 216.599C249.636 216.62 249.75 216.625 249.859 216.604C249.969 216.589 250.073 216.547 250.167 216.469C250.24 216.417 250.302 216.349 250.359 216.26C250.427 216.161 250.49 216.036 250.542 215.88C250.563 215.813 250.74 215.104 250.854 214.198C250.922 213.667 250.964 213.068 250.938 212.495C250.922 212.042 250.859 211.604 250.729 211.229C250.63 210.938 250.484 210.688 250.281 210.5C250.234 210.453 250.193 210.406 250.156 210.354C250.12 210.302 250.089 210.245 250.063 210.188C250.037 210.13 250.016 210.068 250 210.005C249.99 209.943 249.979 209.88 249.979 209.813C249.979 209.75 249.984 209.682 249.995 209.62C250.005 209.557 250.021 209.495 250.047 209.438C250.073 209.375 250.099 209.318 250.136 209.266C250.172 209.208 250.214 209.161 250.255 209.115C250.359 209.005 250.484 208.927 250.625 208.885C250.75 208.849 250.896 208.844 251.057 208.885C251.219 208.927 251.401 209.026 251.615 209.198C251.807 209.365 252.026 209.599 252.266 209.917C252.573 210.333 252.818 210.88 253.005 211.51C253.229 212.286 253.365 213.182 253.417 214.13C253.469 215.193 253.417 216.318 253.271 217.385C253.115 218.557 252.839 219.661 252.479 220.536L252.474 220.542C252.443 220.615 252.422 220.693 252.401 220.776C252.386 220.854 252.38 220.938 252.38 221.016C252.38 221.099 252.386 221.182 252.401 221.26C252.417 221.344 252.443 221.422 252.474 221.495C252.5 221.563 252.537 221.63 252.578 221.688C252.62 221.745 252.672 221.802 252.734 221.844C252.787 221.88 252.854 221.906 252.927 221.922C252.984 221.932 253.052 221.938 253.13 221.927C253.177 221.922 253.229 221.911 253.276 221.901C253.328 221.885 253.375 221.87 253.417 221.849C253.464 221.828 253.505 221.802 253.547 221.771C253.589 221.745 253.63 221.714 253.667 221.677C253.886 221.443 254.276 221.005 254.688 220.422C254.964 220.021 255.255 219.552 255.511 219.031C255.734 218.568 255.932 218.063 256.073 217.526C256.203 217.021 256.287 216.49 256.292 215.932C256.292 215.875 256.313 215.823 256.349 215.786C256.391 215.745 256.443 215.724 256.5 215.719C256.557 215.719 256.609 215.74 256.651 215.776C256.688 215.813 256.714 215.865 256.719 215.922C256.719 215.932 256.761 216.901 256.761 218.172C256.761 218.865 256.745 219.651 256.698 220.417C256.662 221.052 256.604 221.672 256.521 222.224C256.453 222.677 256.365 223.078 256.255 223.401V223.406C256.224 223.49 256.203 223.583 256.193 223.672C256.182 223.766 256.188 223.854 256.198 223.948C256.214 224.036 256.234 224.125 256.266 224.214C256.302 224.297 256.344 224.38 256.396 224.453C256.453 224.531 256.511 224.604 256.583 224.661C256.651 224.724 256.729 224.776 256.807 224.818C256.891 224.865 256.979 224.896 257.068 224.922C257.156 224.943 257.25 224.953 257.344 224.958H257.349C257.479 224.958 257.615 224.943 257.75 224.896C257.87 224.859 257.99 224.797 258.109 224.714C258.219 224.641 258.323 224.547 258.427 224.432C258.516 224.333 258.599 224.224 258.682 224.094C258.698 224.078 258.714 224.063 258.734 224.057C258.75 224.047 258.771 224.047 258.792 224.052C258.813 224.057 258.833 224.068 258.844 224.089C258.859 224.104 258.865 224.12 258.865 224.146C258.865 224.161 258.886 225 259.125 225.719C259.245 226.094 259.427 226.432 259.688 226.62C259.74 226.661 259.797 226.693 259.854 226.714C259.912 226.74 259.974 226.76 260.037 226.771C260.109 226.781 260.182 226.766 260.245 226.729C260.302 226.693 260.354 226.641 260.38 226.568C260.537 226.177 260.672 225.797 260.792 225.443C260.927 225.026 261.042 224.635 261.136 224.292C261.24 223.911 261.365 223.542 261.521 223.182C261.677 222.823 261.859 222.474 262.063 222.135C262.484 221.448 262.464 220.229 262.188 218.786C261.734 216.417 260.604 213.443 259.688 211.266C259.24 210.193 258.672 209.177 258.005 208.234C257.333 207.297 256.563 206.427 255.703 205.646C255.104 205.109 254.469 204.552 253.865 204.026C253.172 203.422 252.521 202.859 252.011 202.427C251.662 202.13 251.339 201.802 251.052 201.448C250.761 201.099 250.5 200.719 250.276 200.318C248.99 198.052 246.708 194.104 244.297 189.932C240.547 183.464 236.474 176.464 235.266 174.391C235.162 174.214 235.052 174.036 234.938 173.865C234.823 173.693 234.703 173.526 234.578 173.359C232.87 171.099 231.625 167.109 230.724 162.839C229.261 155.88 228.708 148.182 228.578 146.052C228.568 145.875 228.563 145.703 228.557 145.526C228.552 145.349 228.552 145.177 228.552 145C228.563 142.224 228.172 139.505 227.62 137.068C226.896 133.891 225.906 131.193 225.182 129.453C224.906 128.792 224.516 128.193 224.031 127.677C223.547 127.167 222.974 126.74 222.328 126.427C220.261 125.422 217.438 124.063 214.568 122.682C209.568 120.281 204.422 117.828 202.917 117.104C202.734 117.021 202.557 116.922 202.391 116.807C202.224 116.698 202.063 116.578 201.917 116.443C201.318 115.917 200.87 115.391 200.531 114.88C200.078 114.198 199.828 113.547 199.703 112.974C199.583 112.448 199.594 111.911 199.724 111.406C199.849 110.901 200.094 110.427 200.448 110.021C202.844 107.286 204.484 103.979 205.599 100.885C207.557 95.4323 207.901 90.6198 207.901 90.6146C208.734 84.2761 207.792 79.9896 206.271 77.1042C203.828 72.4792 199.906 71.4583 199.448 71.349C200.594 70.3229 200.927 69.224 200.875 68.2396C200.792 66.5781 199.625 65.224 199.438 65.0208L199.406 64.9792C197.458 62.5781 195.24 61.9427 193.214 62.1042C190.646 62.3073 188.385 63.7865 187.38 64.5417C187.13 64.7292 186.964 64.875 186.88 64.9427L186.828 64.9896ZM140.031 213.807C140.031 213.807 140.771 212.536 145.339 211.745C147.375 211.391 150.177 211.13 154.01 211.125C155.813 211.12 157.844 211.172 160.13 211.297C161.99 211.401 164.021 211.547 166.234 211.75C167.526 211.87 168.88 212.005 170.297 212.161C171.594 212.307 172.948 212.464 174.354 212.641C175.656 212.807 177.005 212.984 178.401 213.182C179.708 213.365 181.052 213.563 182.443 213.771C183.323 213.906 184.224 214.042 185.136 214.188C186.016 214.323 186.912 214.469 187.828 214.615C188.063 214.656 188.297 214.682 188.531 214.698C188.766 214.714 189 214.719 189.24 214.714C189.474 214.703 189.708 214.688 189.943 214.656C190.177 214.63 190.412 214.589 190.641 214.542C191.208 214.411 191.912 214.245 192.677 214.047C193.318 213.875 194.005 213.682 194.688 213.469C195.135 213.328 195.583 213.177 196.021 213.016C196.469 212.854 196.906 212.677 197.323 212.495C197.594 212.375 197.859 212.24 198.109 212.089C198.365 211.943 198.615 211.776 198.849 211.599C199.083 211.422 199.313 211.229 199.526 211.026C199.74 210.823 199.943 210.609 200.13 210.38C200.453 209.995 200.958 209.521 201.698 209.125C202.214 208.849 202.849 208.615 203.609 208.479C204.214 208.37 204.896 208.328 205.667 208.37C206.287 208.406 206.969 208.5 207.714 208.667C207.943 208.714 208.172 208.76 208.406 208.792C208.641 208.823 208.875 208.849 209.115 208.865C209.349 208.875 209.583 208.88 209.818 208.875C210.057 208.87 210.292 208.854 210.526 208.833C211.589 208.724 213.042 208.5 214.604 208.052C215.865 207.693 217.193 207.182 218.432 206.464C218.927 206.177 219.412 205.854 219.875 205.495C220.328 205.141 220.755 204.75 221.151 204.318C221.422 204.193 221.787 204.031 222.193 203.859C222.693 203.646 223.25 203.411 223.776 203.198C224.297 202.979 224.833 202.823 225.386 202.729C225.932 202.635 226.495 202.609 227.052 202.641C227.917 202.698 228.771 202.609 229.542 202.464C230.531 202.271 231.38 201.979 231.938 201.76C232.224 201.646 232.521 201.557 232.823 201.495C233.125 201.438 233.432 201.406 233.745 201.401C235.511 201.385 236.719 201.802 237.547 202.396C239 203.443 239.276 205.047 239.318 205.828C239.323 205.875 239.307 205.922 239.281 205.958C239.255 205.995 239.219 206.026 239.177 206.042C238.62 206.24 238.083 206.464 237.563 206.703C237.031 206.958 236.516 207.229 236.021 207.516C235.026 208.094 234.12 208.729 233.307 209.37C232.349 210.13 231.531 210.891 230.865 211.568C230.568 211.875 230.245 212.146 229.901 212.391C229.557 212.641 229.193 212.854 228.813 213.036C228.432 213.214 228.031 213.365 227.625 213.474C227.219 213.589 226.807 213.661 226.38 213.703C225.38 213.797 224.281 214.016 223.136 214.318C221.62 214.719 220.021 215.266 218.438 215.885C216.453 216.661 214.5 217.547 212.792 218.375C210.12 219.667 208.026 220.823 207.318 221.229L206.755 221.573C206.156 221.964 205.396 222.365 204.5 222.766C203.479 223.229 202.281 223.703 200.943 224.177C199.547 224.677 198 225.177 196.349 225.677C194.875 226.125 193.318 226.573 191.703 227.016C189.359 227.656 186.901 228.286 184.412 228.901C181.969 229.5 179.5 230.078 177.078 230.63C174.109 231.302 171.224 231.932 168.563 232.495C165.266 233.198 162.323 233.792 160.021 234.25C159.984 234.26 159.948 234.266 159.906 234.271C159.87 234.271 159.828 234.276 159.792 234.276C159.224 234.286 158.667 234.292 158.12 234.297C157.552 234.302 156.995 234.307 156.453 234.307C156.318 234.307 156.182 234.313 156.047 234.318C155.917 234.328 155.781 234.339 155.646 234.349C154.172 234.495 148.854 234.995 143.24 235.208C140.401 235.313 137.484 235.349 134.953 235.229C132.693 235.115 130.495 234.568 128.479 233.641C126.458 232.714 124.62 231.401 123.063 229.755C122.839 229.516 122.599 229.255 122.375 228.99C122.141 228.719 121.922 228.443 121.734 228.177C121.729 228.177 121.729 228.177 121.729 228.177C121.458 227.833 121.193 227.536 120.917 227.255C120.641 226.974 120.349 226.703 120.037 226.422C120.073 226.328 120.271 225.786 120.432 225.276C120.521 224.995 120.599 224.719 120.63 224.536C120.682 224.604 120.74 224.667 120.797 224.724C120.875 224.802 120.953 224.87 121.031 224.927C121.172 225.031 121.318 225.104 121.464 225.156C121.625 225.208 121.792 225.234 121.948 225.234C122.068 225.234 122.182 225.224 122.292 225.198C122.406 225.172 122.516 225.13 122.615 225.078C122.719 225.026 122.818 224.964 122.906 224.885C122.995 224.813 123.073 224.729 123.141 224.63C123.214 224.536 123.271 224.438 123.313 224.328C123.359 224.219 123.391 224.109 123.406 223.99C123.427 223.875 123.432 223.76 123.422 223.641C123.412 223.526 123.385 223.411 123.349 223.302C123.25 222.984 123.177 222.594 123.12 222.156C123.047 221.62 123.005 221.016 122.984 220.401C122.969 220.042 122.958 219.677 122.958 219.323C122.953 218.995 122.953 218.677 122.958 218.375C123.005 218.505 123.052 218.63 123.104 218.755C123.172 218.927 123.24 219.094 123.318 219.25C123.578 219.807 123.875 220.307 124.167 220.729C124.594 221.354 124.995 221.813 125.229 222.063C125.287 222.125 125.349 222.177 125.417 222.229C125.484 222.276 125.557 222.318 125.63 222.354C125.703 222.391 125.781 222.422 125.865 222.443C125.943 222.464 126.026 222.484 126.109 222.49C126.255 222.505 126.385 222.5 126.505 222.474C126.646 222.443 126.771 222.391 126.875 222.318C126.984 222.25 127.078 222.156 127.156 222.057C127.234 221.953 127.297 221.844 127.349 221.724C127.401 221.615 127.438 221.495 127.458 221.38C127.484 221.26 127.5 221.141 127.5 221.021C127.5 220.896 127.49 220.776 127.464 220.656C127.443 220.542 127.406 220.422 127.359 220.313C127.063 219.599 126.839 218.734 126.682 217.802C126.547 216.964 126.469 216.078 126.453 215.203C126.438 214.12 126.516 213.052 126.719 212.135C126.88 211.38 127.13 210.724 127.479 210.245C127.646 210.016 127.807 209.844 127.964 209.714C128.104 209.599 128.24 209.521 128.375 209.479C128.568 209.417 128.745 209.427 128.906 209.479C129.083 209.536 129.24 209.646 129.375 209.76C129.396 209.776 129.417 209.802 129.438 209.823C129.453 209.849 129.469 209.875 129.484 209.901C129.495 209.927 129.51 209.953 129.516 209.984C129.526 210.016 129.526 210.042 129.531 210.073C129.531 210.104 129.531 210.135 129.526 210.167C129.521 210.193 129.516 210.224 129.505 210.255C129.495 210.281 129.479 210.307 129.464 210.333C129.448 210.359 129.427 210.385 129.406 210.406C129.198 210.625 129.021 210.896 128.88 211.198C128.682 211.604 128.547 212.073 128.453 212.557C128.344 213.13 128.297 213.724 128.281 214.255C128.25 215.214 128.323 215.958 128.323 215.958C128.328 215.969 128.328 215.979 128.328 215.984L128.339 216.016C128.391 216.161 128.448 216.286 128.516 216.396C128.594 216.531 128.682 216.641 128.776 216.729C128.891 216.839 129.016 216.922 129.146 216.979C129.287 217.036 129.427 217.073 129.578 217.083C129.703 217.094 129.823 217.089 129.943 217.073C130.068 217.057 130.182 217.026 130.297 216.979C130.412 216.938 130.521 216.88 130.62 216.807C130.719 216.74 130.813 216.656 130.896 216.568C130.979 216.474 131.047 216.375 131.109 216.271C131.167 216.161 131.214 216.047 131.245 215.932C131.276 215.818 131.297 215.693 131.302 215.573C131.307 215.453 131.297 215.333 131.276 215.214V215.208C131.198 214.833 131.219 214.432 131.328 214.01C131.417 213.646 131.573 213.271 131.781 212.885C132.037 212.417 132.375 211.932 132.792 211.448C133.151 211.031 133.563 210.609 134.031 210.188C134.083 210.141 134.141 210.099 134.203 210.063C134.271 210.026 134.333 210 134.406 209.979C134.604 209.917 134.917 209.813 135.281 209.63C135.531 209.505 135.807 209.349 136.089 209.151C136.203 209.073 136.313 208.99 136.427 208.896C136.537 208.813 136.641 208.719 136.75 208.62C136.771 208.599 136.797 208.583 136.823 208.573C136.849 208.563 136.88 208.557 136.906 208.557C144.417 208.318 150.13 207.656 154.412 206.87C161.422 205.583 164.604 203.974 165.578 203.401C165.724 203.313 165.859 203.208 165.979 203.089C166.099 202.969 166.208 202.839 166.302 202.693C167.172 201.286 168.203 197.802 169.214 193.667C171.359 184.865 173.401 173.078 173.599 171.938C173.609 171.865 173.62 171.792 173.625 171.719C173.636 171.646 173.641 171.573 173.646 171.5C173.698 170.229 173.323 167.646 172.771 164.661C171.521 157.844 169.365 148.943 169.365 148.943C169.365 148.932 169.349 148.922 169.339 148.927C169.328 148.932 169.318 148.943 169.323 148.953C169.714 150.708 169 154.469 167.823 158.818C165.401 167.781 161.026 179.271 160.349 181.036C160.271 181.234 160.188 181.438 160.099 181.635C160.016 181.833 159.922 182.026 159.823 182.219C158.266 185.365 155.24 189.047 151.891 192.563C145.974 198.792 139.047 204.505 137.438 205.818C137.328 205.906 137.245 206.01 137.188 206.13C137.13 206.25 137.099 206.38 137.099 206.516C137.099 206.693 137.083 206.865 137.063 207.021C137.037 207.198 137 207.365 136.958 207.516C136.875 207.802 136.745 208.073 136.568 208.313C136.396 208.547 136.182 208.755 135.932 208.922L135.927 208.927C135.615 209.135 135.318 209.292 135.052 209.411C134.495 209.661 134.099 209.734 134.099 209.734C134.089 209.734 134.073 209.74 134.063 209.745C134.052 209.755 134.037 209.76 134.026 209.771C133.495 210.219 133.021 210.672 132.609 211.12C132.13 211.656 131.74 212.182 131.448 212.698C131.203 213.125 131.031 213.542 130.927 213.943C130.802 214.417 130.776 214.87 130.854 215.292C130.87 215.375 130.87 215.464 130.865 215.552C130.859 215.641 130.849 215.729 130.823 215.813C130.797 215.896 130.76 215.974 130.719 216.052C130.677 216.125 130.625 216.198 130.563 216.26C130.505 216.328 130.438 216.38 130.365 216.432C130.292 216.479 130.214 216.516 130.13 216.547C130.052 216.578 129.969 216.599 129.88 216.609C129.797 216.62 129.708 216.62 129.62 216.615V216.609C129.526 216.604 129.432 216.578 129.344 216.542C129.26 216.505 129.182 216.453 129.115 216.38C129.047 216.318 128.99 216.24 128.938 216.151C128.891 216.073 128.854 215.984 128.818 215.885C128.807 215.74 128.76 215.089 128.802 214.271C128.823 213.766 128.875 213.208 128.99 212.661C129.073 212.245 129.193 211.839 129.359 211.484C129.484 211.224 129.63 210.99 129.818 210.802C129.865 210.755 129.906 210.698 129.948 210.641C129.984 210.583 130.016 210.521 130.042 210.458C130.063 210.391 130.083 210.323 130.094 210.255C130.104 210.188 130.109 210.12 130.109 210.047C130.104 209.979 130.094 209.906 130.078 209.844C130.063 209.776 130.037 209.708 130.005 209.646C129.979 209.583 129.943 209.521 129.896 209.469C129.854 209.411 129.807 209.359 129.755 209.318C129.552 209.135 129.302 208.979 129.026 208.901C128.771 208.823 128.495 208.813 128.193 208.906C128.016 208.964 127.828 209.057 127.635 209.203C127.422 209.365 127.203 209.589 126.984 209.885C126.672 210.307 126.427 210.859 126.24 211.495C126.01 212.271 125.875 213.177 125.828 214.125C125.776 215.193 125.828 216.323 125.974 217.391C126.135 218.568 126.412 219.677 126.776 220.552L126.781 220.557C126.813 220.63 126.833 220.703 126.849 220.781C126.865 220.859 126.875 220.938 126.875 221.016C126.875 221.099 126.87 221.177 126.854 221.255C126.839 221.333 126.813 221.406 126.781 221.484C126.755 221.547 126.724 221.609 126.682 221.667C126.641 221.719 126.594 221.771 126.537 221.813C126.484 221.844 126.427 221.87 126.359 221.88C126.302 221.891 126.24 221.896 126.167 221.891C126.12 221.885 126.073 221.875 126.026 221.865C125.979 221.849 125.932 221.833 125.891 221.813C125.849 221.792 125.807 221.771 125.766 221.74C125.729 221.714 125.693 221.682 125.656 221.651C125.438 221.417 125.047 220.984 124.641 220.401C124.359 220.005 124.073 219.536 123.818 219.01C123.594 218.552 123.396 218.052 123.255 217.516C123.125 217.016 123.047 216.484 123.042 215.932C123.042 215.865 123.016 215.802 122.969 215.755C122.927 215.714 122.865 215.682 122.797 215.682C122.729 215.677 122.662 215.703 122.62 215.75C122.573 215.792 122.542 215.854 122.537 215.922C122.537 215.922 122.49 216.891 122.495 218.172C122.495 218.865 122.51 219.651 122.557 220.422C122.594 221.052 122.651 221.677 122.734 222.229C122.802 222.682 122.891 223.089 123 223.417C123.031 223.5 123.047 223.589 123.057 223.677C123.068 223.766 123.068 223.854 123.052 223.938C123.042 224.026 123.021 224.115 122.99 224.198C122.953 224.281 122.912 224.359 122.859 224.432C122.813 224.505 122.75 224.573 122.682 224.63C122.615 224.693 122.542 224.74 122.464 224.781C122.385 224.823 122.302 224.859 122.214 224.88C122.125 224.901 122.037 224.911 121.948 224.917C121.818 224.917 121.688 224.901 121.557 224.859C121.443 224.818 121.323 224.76 121.208 224.682C121.104 224.604 121 224.516 120.896 224.401C120.813 224.307 120.729 224.198 120.646 224.073C120.63 224.047 120.604 224.026 120.578 224.016C120.547 224.005 120.521 224 120.49 224.01C120.458 224.021 120.432 224.036 120.417 224.057C120.396 224.083 120.385 224.109 120.385 224.141C120.385 224.141 120.38 224.38 120.339 224.708C120.318 224.88 120.287 225.073 120.245 225.271C120.219 225.385 120.162 225.484 120.078 225.563C120 225.635 119.896 225.693 119.781 225.708C119.667 225.729 119.552 225.714 119.448 225.667C119.349 225.62 119.26 225.547 119.198 225.443C118.807 224.786 118.448 223.813 118.229 222.37C118.047 221.13 117.974 219.542 118.089 217.51C118.109 217.443 118.516 216.182 119.276 214.703C119.714 213.854 120.266 212.943 120.927 212.141C120.932 212.141 120.932 212.141 120.932 212.135C120.932 212.135 121.099 211.828 121.313 211.359C121.417 211.125 121.531 210.849 121.641 210.557C121.979 209.661 122.448 208.823 123.026 208.078C123.609 207.328 124.302 206.667 125.083 206.12C125.599 205.76 126.177 205.37 126.807 204.948C127.354 204.583 127.938 204.203 128.557 203.807C129.214 203.385 129.828 202.911 130.396 202.385C130.964 201.865 131.49 201.292 131.958 200.672C133.88 198.156 137.26 193.641 139.693 189.938C141.047 187.88 142.109 186.073 142.469 185C142.505 184.922 144.328 181.141 146.453 177.906C147.609 176.151 148.854 174.557 149.953 173.807C150.537 173.406 151.109 172.552 151.662 171.38C152.458 169.688 153.203 167.333 153.849 164.766C155.182 159.469 156.078 153.25 156.078 150.026V150.021C156.078 150.021 154.24 138.51 159.156 130.396C161.271 126.911 164.635 124.052 169.927 123.005C169.927 123.005 173.057 122.359 177.203 120.609C179.297 119.724 181.651 118.557 183.99 117.052C184.037 117.021 184.083 116.995 184.13 116.969C184.177 116.943 184.229 116.917 184.276 116.891C184.521 116.776 185.089 116.375 185.625 115.031C185.938 114.255 186.234 113.167 186.453 111.641C186.49 111.385 186.464 111.13 186.386 110.891C186.307 110.651 186.172 110.432 185.99 110.25C185.063 109.318 183.641 107.995 181.927 104.385C180.833 102.089 179.625 98.8698 178.349 94.2344C178.047 93.1458 177.839 92.0313 177.729 90.9115C177.62 89.7865 177.604 88.6563 177.688 87.5261C177.938 84.2708 178.651 79.5365 180.693 76.0208C182.057 73.6563 184.026 71.8438 186.849 71.3854C186.854 71.3854 186.859 71.3802 186.865 71.375C186.87 71.3646 186.865 71.3594 186.865 71.349C186.865 71.349 185.583 69.4323 185.636 67.5156C185.662 66.6615 185.948 65.8073 186.734 65.1302L186.854 65.0208H186.859C186.87 65.0104 186.886 65 186.912 64.9792C186.99 64.9063 187.162 64.7656 187.406 64.5781C188.412 63.8281 190.662 62.3542 193.219 62.1511C195.229 61.9896 197.438 62.6198 199.37 65.0104L199.406 65.0521C199.589 65.2552 200.745 66.5938 200.828 68.2396C200.88 69.224 200.542 70.3229 199.38 71.349C199.375 71.3542 199.375 71.3594 199.375 71.3698C199.38 71.3802 199.385 71.3854 199.396 71.3854C199.396 71.3854 203.646 72.2292 206.229 77.125C207.75 80.0052 208.688 84.2813 207.854 90.6094C207.854 90.6094 207.516 95.4219 205.557 100.87C204.443 103.958 202.807 107.26 200.417 109.995C200.057 110.401 199.807 110.885 199.677 111.396C199.547 111.911 199.537 112.453 199.656 112.984C199.787 113.563 200.037 114.219 200.495 114.906C200.833 115.417 201.281 115.948 201.886 116.479C202.037 116.609 202.198 116.734 202.365 116.849C202.537 116.958 202.714 117.057 202.896 117.146C204.401 117.87 209.547 120.323 214.552 122.724C217.417 124.104 220.245 125.464 222.307 126.464C222.948 126.781 223.516 127.203 223.995 127.708C224.474 128.219 224.865 128.813 225.141 129.469C225.859 131.208 226.854 133.906 227.573 137.078C228.125 139.51 228.521 142.224 228.505 145C228.505 145.177 228.511 145.349 228.511 145.526C228.516 145.703 228.526 145.88 228.531 146.052C228.667 148.188 229.214 155.885 230.682 162.844C231.583 167.125 232.833 171.125 234.542 173.385C234.667 173.552 234.787 173.719 234.901 173.891C235.016 174.063 235.12 174.234 235.224 174.411C236.438 176.484 240.511 183.49 244.255 189.958C246.672 194.125 248.948 198.078 250.24 200.344C250.464 200.745 250.724 201.125 251.016 201.479C251.307 201.833 251.63 202.161 251.979 202.458C252.49 202.896 253.146 203.453 253.839 204.057C254.438 204.583 255.073 205.146 255.672 205.682C256.531 206.458 257.297 207.323 257.964 208.266C258.63 209.203 259.198 210.214 259.646 211.281C260.563 213.458 261.693 216.427 262.141 218.797C262.417 220.224 262.443 221.432 262.026 222.115C261.818 222.448 261.636 222.802 261.479 223.161C261.323 223.526 261.193 223.896 261.094 224.281C261 224.625 260.886 225.01 260.745 225.427C260.63 225.786 260.49 226.161 260.339 226.552C260.313 226.615 260.271 226.661 260.219 226.693C260.167 226.719 260.109 226.734 260.047 226.729C259.984 226.714 259.927 226.698 259.87 226.672C259.818 226.651 259.766 226.62 259.714 226.583C259.458 226.401 259.287 226.068 259.167 225.708C258.932 224.979 258.912 224.141 258.912 224.141C258.912 224.109 258.901 224.083 258.88 224.057C258.859 224.036 258.833 224.016 258.807 224.01C258.776 224 258.745 224 258.714 224.01C258.688 224.026 258.662 224.042 258.646 224.068C258.563 224.198 258.479 224.307 258.396 224.401C258.292 224.51 258.188 224.604 258.083 224.677C257.969 224.76 257.854 224.818 257.734 224.854C257.604 224.896 257.474 224.911 257.349 224.911H257.344C257.255 224.911 257.167 224.896 257.078 224.875C256.995 224.854 256.912 224.823 256.828 224.781C256.75 224.74 256.677 224.688 256.609 224.63C256.547 224.568 256.484 224.505 256.432 224.427C256.386 224.354 256.344 224.276 256.313 224.198C256.276 224.115 256.255 224.026 256.245 223.938C256.234 223.854 256.229 223.766 256.24 223.677C256.25 223.589 256.271 223.505 256.297 223.422V223.417C256.406 223.089 256.495 222.682 256.568 222.229C256.651 221.677 256.708 221.057 256.745 220.422C256.787 219.651 256.802 218.865 256.807 218.172C256.807 216.891 256.766 215.922 256.766 215.922C256.761 215.849 256.729 215.786 256.682 215.745C256.63 215.698 256.568 215.672 256.5 215.677C256.427 215.677 256.365 215.708 256.318 215.755C256.271 215.802 256.245 215.865 256.245 215.932C256.24 216.484 256.162 217.016 256.031 217.516C255.891 218.047 255.693 218.552 255.469 219.01C255.214 219.531 254.927 220 254.651 220.396C254.24 220.979 253.854 221.411 253.63 221.641C253.599 221.677 253.563 221.708 253.521 221.734C253.484 221.76 253.443 221.786 253.401 221.807C253.354 221.828 253.313 221.844 253.266 221.854C253.219 221.87 253.172 221.88 253.125 221.88C253.052 221.891 252.99 221.885 252.932 221.875C252.865 221.859 252.807 221.839 252.761 221.802C252.703 221.766 252.656 221.714 252.615 221.661C252.573 221.604 252.542 221.542 252.516 221.479C252.484 221.406 252.464 221.328 252.448 221.255C252.432 221.177 252.422 221.099 252.422 221.016C252.422 220.938 252.432 220.859 252.448 220.781C252.464 220.708 252.49 220.63 252.521 220.557C252.886 219.677 253.156 218.568 253.318 217.391C253.464 216.323 253.516 215.193 253.458 214.125C253.412 213.177 253.276 212.276 253.047 211.5C252.859 210.865 252.615 210.313 252.302 209.891C252.063 209.568 251.839 209.328 251.641 209.167C251.427 208.984 251.234 208.885 251.068 208.844C250.896 208.797 250.745 208.802 250.615 208.839C250.464 208.885 250.333 208.969 250.224 209.083C250.177 209.13 250.136 209.182 250.099 209.24C250.063 209.297 250.031 209.354 250.005 209.417C249.979 209.479 249.964 209.547 249.948 209.615C249.938 209.677 249.932 209.745 249.932 209.813C249.932 209.88 249.943 209.948 249.958 210.016C249.969 210.078 249.995 210.146 250.021 210.208C250.047 210.266 250.078 210.328 250.12 210.38C250.156 210.438 250.203 210.484 250.25 210.531C250.448 210.719 250.589 210.964 250.688 211.245C250.818 211.615 250.875 212.047 250.896 212.495C250.917 213.068 250.875 213.667 250.807 214.193C250.698 215.089 250.516 215.792 250.5 215.865C250.458 215.99 250.412 216.089 250.359 216.177C250.292 216.286 250.219 216.375 250.141 216.432C250.052 216.505 249.953 216.542 249.849 216.563C249.745 216.578 249.641 216.573 249.531 216.552C249.37 216.526 249.219 216.469 249.083 216.391C248.948 216.307 248.823 216.203 248.719 216.083C248.62 215.958 248.537 215.823 248.479 215.667C248.427 215.521 248.396 215.365 248.396 215.198C248.391 214.641 248.203 213.922 247.891 213.13C247.537 212.24 247.021 211.255 246.417 210.292C246.052 209.708 245.656 209.135 245.24 208.594C244.802 208.021 244.349 207.484 243.896 207.021C243.87 206.995 243.854 206.964 243.849 206.927C243.839 206.891 243.844 206.859 243.854 206.823C244.307 205.63 244.261 204.646 243.995 203.859C243.526 202.448 242.359 201.682 242.13 201.542L242.094 201.521C240.266 200.323 237.417 197.286 234.542 193.917C229.755 188.302 224.896 181.766 224.537 181.281L224.474 181.198C222.448 178.526 220.818 174.297 219.552 169.854C217.063 161.115 215.969 151.573 215.969 151.573C215.969 151.563 215.958 151.552 215.948 151.552C215.938 151.552 215.927 151.563 215.922 151.573C213.182 162.182 212.49 171.125 212.875 178.469C213.698 194.161 219.453 202.531 220.688 204.141C220.688 204.141 220.688 204.141 220.688 204.146C220.724 204.188 220.74 204.245 220.734 204.297C220.734 204.349 220.714 204.401 220.672 204.443C220.302 204.813 219.938 205.13 219.547 205.422C219.162 205.714 218.75 205.974 218.297 206.224C217.068 206.911 215.755 207.396 214.511 207.734C212.969 208.151 211.537 208.349 210.49 208.438C210.266 208.458 210.042 208.469 209.813 208.469C209.589 208.474 209.365 208.464 209.141 208.448C208.917 208.432 208.693 208.406 208.469 208.37C208.25 208.339 208.026 208.297 207.807 208.245C207.037 208.057 206.328 207.953 205.677 207.911C204.87 207.854 204.156 207.896 203.526 208C202.693 208.135 202.005 208.385 201.443 208.682C200.63 209.104 200.078 209.62 199.724 210.036C199.542 210.245 199.354 210.443 199.151 210.63C198.953 210.818 198.74 210.99 198.521 211.156C198.297 211.318 198.068 211.469 197.828 211.604C197.594 211.74 197.349 211.865 197.094 211.969C196.688 212.146 196.261 212.313 195.818 212.469C195.391 212.62 194.953 212.766 194.516 212.901C193.833 213.109 193.156 213.292 192.521 213.453C191.766 213.646 191.068 213.807 190.505 213.927C190.297 213.974 190.083 214.005 189.87 214.031C189.651 214.057 189.438 214.073 189.224 214.078C189.005 214.083 188.792 214.078 188.573 214.063C188.359 214.047 188.146 214.021 187.932 213.984C187.016 213.833 186.12 213.688 185.24 213.552C184.318 213.406 183.422 213.266 182.542 213.135C181.146 212.927 179.797 212.734 178.49 212.563C177.083 212.37 175.729 212.198 174.427 212.042C173.016 211.875 171.662 211.724 170.359 211.594C168.932 211.448 167.578 211.323 166.281 211.219C164.057 211.036 162.016 210.911 160.151 210.833C157.854 210.74 155.818 210.708 154.005 210.74C150.12 210.797 147.287 211.099 145.229 211.495C140.599 212.375 139.87 213.714 139.87 213.719C139.859 213.74 139.854 213.766 139.865 213.786C139.87 213.813 139.885 213.828 139.906 213.844C139.927 213.854 139.953 213.859 139.974 213.849C140 213.844 140.021 213.828 140.031 213.807ZM259.609 226.734C259.365 226.563 259.182 226.266 259.047 225.938C258.844 225.432 258.745 224.844 258.703 224.484C258.698 224.474 258.693 224.469 258.682 224.464C258.677 224.464 258.667 224.469 258.662 224.474C258.594 224.557 258.531 224.63 258.464 224.698C258.391 224.771 258.313 224.833 258.24 224.891C258.099 224.995 257.958 225.068 257.818 225.115C257.656 225.167 257.5 225.193 257.344 225.193C257.234 225.193 257.12 225.182 257.011 225.156C256.901 225.13 256.797 225.094 256.698 225.042C256.594 224.99 256.5 224.927 256.417 224.854C256.328 224.781 256.25 224.698 256.182 224.609C256.115 224.516 256.063 224.417 256.021 224.313C255.974 224.208 255.943 224.099 255.927 223.984C255.912 223.875 255.906 223.76 255.917 223.646C255.922 223.536 255.948 223.422 255.979 223.313H255.984C256.083 222.995 256.156 222.599 256.214 222.161C256.287 221.62 256.328 221.016 256.349 220.401C256.365 220.047 256.37 219.693 256.375 219.344C256.38 218.979 256.375 218.62 256.375 218.281C256.375 218.271 256.365 218.26 256.354 218.26C256.344 218.26 256.333 218.266 256.328 218.276C256.271 218.443 256.214 218.604 256.151 218.76C256.083 218.922 256.016 219.083 255.943 219.234C255.682 219.792 255.386 220.286 255.094 220.708C254.672 221.328 254.266 221.786 254.037 222.036C253.979 222.094 253.917 222.146 253.854 222.198C253.787 222.245 253.719 222.286 253.646 222.318C253.573 222.354 253.495 222.385 253.417 222.406C253.344 222.427 253.261 222.443 253.182 222.453C253.037 222.469 252.912 222.458 252.797 222.438C252.662 222.406 252.542 222.354 252.438 222.286C252.333 222.219 252.245 222.13 252.167 222.031C252.094 221.932 252.031 221.823 251.979 221.708C251.932 221.599 251.896 221.484 251.875 221.37C251.849 221.255 251.839 221.135 251.833 221.021C251.833 220.901 251.844 220.781 251.87 220.667C251.891 220.552 251.927 220.438 251.974 220.328C252.271 219.615 252.5 218.745 252.656 217.807C252.797 216.969 252.875 216.083 252.891 215.203C252.906 214.115 252.828 213.042 252.625 212.125C252.458 211.359 252.208 210.698 251.859 210.214C251.703 210 251.557 209.828 251.427 209.693C251.297 209.563 251.182 209.474 251.073 209.411C250.979 209.365 250.901 209.344 250.828 209.344C250.734 209.349 250.656 209.385 250.594 209.448C250.573 209.474 250.552 209.5 250.531 209.526C250.516 209.552 250.5 209.583 250.484 209.615C250.474 209.641 250.464 209.677 250.458 209.708C250.453 209.74 250.448 209.771 250.448 209.807C250.448 209.839 250.453 209.875 250.458 209.906C250.464 209.938 250.474 209.969 250.49 210C250.5 210.031 250.516 210.063 250.537 210.089C250.557 210.115 250.578 210.141 250.599 210.167C250.828 210.385 251 210.672 251.12 211.005C251.281 211.438 251.354 211.948 251.37 212.479C251.386 213.078 251.328 213.698 251.25 214.245C251.115 215.224 250.901 215.984 250.901 215.984L250.896 215.995C250.839 216.161 250.771 216.297 250.698 216.417C250.599 216.563 250.495 216.677 250.386 216.755C250.245 216.859 250.094 216.922 249.943 216.948C249.787 216.974 249.62 216.969 249.458 216.938V216.932C249.255 216.896 249.063 216.818 248.891 216.714C248.719 216.609 248.563 216.474 248.438 216.318C248.313 216.161 248.214 215.984 248.146 215.792C248.078 215.604 248.047 215.406 248.047 215.198C248.052 214.661 247.88 213.964 247.583 213.193C247.255 212.328 246.771 211.37 246.208 210.422C245.875 209.87 245.516 209.328 245.141 208.807C244.75 208.266 244.339 207.755 243.932 207.297C243.859 207.219 243.781 207.146 243.698 207.078C243.615 207.01 243.531 206.948 243.438 206.896C243.052 206.667 242.318 206.286 241.448 206.125C240.792 206 240.052 205.995 239.333 206.276C239.333 206.276 238.344 206.656 237.396 207.089C236.927 207.297 236.464 207.521 236.141 207.719C235.167 208.302 234.276 208.943 233.484 209.589C232.547 210.349 231.75 211.115 231.099 211.797C230.792 212.12 230.458 212.411 230.104 212.672C229.745 212.932 229.365 213.167 228.969 213.359C228.568 213.557 228.156 213.719 227.729 213.839C227.302 213.964 226.865 214.047 226.422 214.094C225.438 214.198 224.359 214.427 223.229 214.74C221.74 215.151 220.167 215.714 218.615 216.339C216.651 217.13 214.719 218.026 213.026 218.859C210.38 220.167 208.313 221.328 207.609 221.734L207.078 222.063C206.469 222.464 205.693 222.875 204.781 223.292C203.734 223.771 202.511 224.255 201.141 224.74C199.74 225.24 198.188 225.74 196.521 226.234C195.042 226.677 193.474 227.12 191.849 227.552C189.5 228.177 187.031 228.792 184.531 229.38C182.078 229.958 179.599 230.516 177.172 231.042C174.401 231.641 171.703 232.198 169.193 232.703C166.177 233.307 163.438 233.828 161.188 234.25C161.177 234.25 161.167 234.26 161.172 234.276C161.172 234.286 161.182 234.297 161.193 234.297C166.276 234.188 172.089 233.943 177.714 233.656C190.464 233.005 202.261 232.13 202.464 232.12C207.995 232.948 214.886 233.505 221.813 233.865C233.552 234.479 245.406 234.521 250.953 234.354C253.182 234.286 254.964 233.505 256.375 232.375C257.969 231.099 259.094 229.375 259.875 227.729C259.958 227.552 259.974 227.359 259.927 227.182C259.875 227.005 259.771 226.844 259.609 226.734ZM259.583 226.771C259.734 226.875 259.833 227.026 259.88 227.193C259.927 227.359 259.912 227.542 259.833 227.708C259.057 229.349 257.932 231.068 256.344 232.339C254.943 233.464 253.172 234.245 250.953 234.307C245.406 234.474 233.552 234.432 221.813 233.823C214.886 233.458 208 232.901 202.464 232.073C202.464 232.073 202.464 232.073 202.458 232.073C202.458 232.073 190.568 232.953 177.708 233.609C172.188 233.891 166.49 234.13 161.474 234.245C163.672 233.833 166.307 233.328 169.198 232.745C171.708 232.245 174.412 231.688 177.182 231.089C179.609 230.563 182.089 230.005 184.542 229.427C187.042 228.833 189.51 228.224 191.859 227.594C193.484 227.161 195.052 226.724 196.537 226.281C198.198 225.781 199.755 225.281 201.156 224.786C202.526 224.297 203.755 223.813 204.797 223.333C205.714 222.917 206.49 222.505 207.104 222.104V222.099L207.63 221.776C208.333 221.37 210.401 220.208 213.047 218.901C214.74 218.063 216.672 217.172 218.63 216.38C220.182 215.755 221.755 215.198 223.24 214.781C224.365 214.474 225.443 214.245 226.427 214.141C226.875 214.094 227.313 214.005 227.74 213.885C228.172 213.76 228.589 213.599 228.99 213.401C229.386 213.203 229.771 212.974 230.13 212.708C230.484 212.448 230.823 212.151 231.13 211.828C231.781 211.151 232.578 210.385 233.516 209.625C234.302 208.984 235.193 208.344 236.167 207.755C236.49 207.563 236.948 207.339 237.412 207.13C238.359 206.698 239.349 206.318 239.349 206.318C240.063 206.042 240.787 206.047 241.443 206.167C242.302 206.333 243.031 206.708 243.417 206.932C243.505 206.99 243.589 207.047 243.672 207.115C243.75 207.182 243.823 207.255 243.896 207.328C244.307 207.781 244.714 208.292 245.104 208.833C245.479 209.349 245.839 209.896 246.167 210.448C246.734 211.391 247.214 212.344 247.542 213.208C247.833 213.974 248.005 214.661 248 215.198C248 215.411 248.037 215.615 248.099 215.807C248.172 216.005 248.271 216.188 248.401 216.344C248.531 216.505 248.688 216.646 248.87 216.755C249.042 216.859 249.24 216.938 249.448 216.979C249.62 217.016 249.787 217.021 249.948 216.995C250.109 216.964 250.266 216.901 250.412 216.797C250.526 216.708 250.636 216.594 250.734 216.443C250.813 216.323 250.88 216.177 250.943 216.01L250.948 215.995C250.948 215.995 251.156 215.234 251.297 214.25C251.375 213.698 251.432 213.078 251.417 212.479C251.401 211.943 251.323 211.427 251.162 210.99C251.042 210.651 250.865 210.354 250.63 210.13C250.609 210.109 250.589 210.089 250.573 210.063C250.557 210.036 250.542 210.01 250.531 209.984C250.521 209.953 250.511 209.927 250.505 209.896C250.495 209.865 250.495 209.839 250.495 209.807C250.495 209.776 250.495 209.745 250.5 209.719C250.511 209.688 250.516 209.656 250.526 209.63C250.542 209.604 250.552 209.578 250.573 209.552C250.589 209.526 250.604 209.505 250.63 209.479C250.682 209.427 250.75 209.396 250.828 209.391C250.896 209.391 250.969 209.406 251.047 209.453C251.156 209.51 251.271 209.599 251.396 209.729C251.526 209.859 251.667 210.026 251.823 210.245C252.167 210.719 252.417 211.375 252.583 212.135C252.781 213.052 252.865 214.12 252.844 215.203C252.828 216.078 252.75 216.964 252.609 217.802C252.453 218.734 252.224 219.599 251.932 220.313C251.886 220.422 251.849 220.542 251.823 220.656C251.802 220.776 251.787 220.896 251.792 221.021C251.792 221.141 251.802 221.26 251.828 221.38C251.854 221.5 251.891 221.615 251.938 221.724V221.729C251.99 221.844 252.052 221.958 252.13 222.063C252.208 222.161 252.302 222.255 252.412 222.323C252.521 222.396 252.646 222.448 252.787 222.479C252.906 222.505 253.037 222.516 253.188 222.5C253.271 222.49 253.354 222.474 253.432 222.448C253.511 222.427 253.589 222.396 253.667 222.359C253.74 222.323 253.813 222.281 253.88 222.234C253.948 222.182 254.011 222.13 254.068 222.068H254.073C254.302 221.818 254.708 221.359 255.136 220.734C255.422 220.307 255.724 219.813 255.984 219.255C256.057 219.099 256.125 218.943 256.193 218.776C256.24 218.661 256.287 218.536 256.328 218.417C256.333 218.714 256.333 219.026 256.328 219.339C256.328 219.688 256.318 220.047 256.307 220.401C256.281 221.016 256.24 221.615 256.172 222.151C256.115 222.589 256.037 222.984 255.938 223.302C255.901 223.411 255.88 223.526 255.87 223.641C255.859 223.76 255.865 223.875 255.88 223.995C255.901 224.109 255.932 224.219 255.974 224.328C256.021 224.438 256.078 224.542 256.146 224.635C256.219 224.729 256.297 224.818 256.386 224.891C256.474 224.964 256.573 225.031 256.677 225.083C256.776 225.135 256.886 225.172 257 225.198C257.115 225.224 257.229 225.24 257.344 225.24C257.505 225.24 257.667 225.214 257.833 225.156C257.974 225.109 258.12 225.031 258.266 224.927C258.344 224.87 258.417 224.807 258.495 224.729C258.552 224.672 258.609 224.615 258.662 224.547C258.708 224.911 258.807 225.469 259.005 225.953C259.141 226.297 259.328 226.599 259.583 226.771ZM186.823 111.182C186.839 111.198 187.323 111.755 188.162 112.401C188.583 112.729 189.094 113.073 189.677 113.391C189.99 113.557 190.323 113.714 190.677 113.854C191.011 113.984 191.359 114.099 191.724 114.188C191.964 114.245 192.203 114.297 192.453 114.333C192.698 114.365 192.943 114.391 193.193 114.396C193.391 114.406 193.589 114.401 193.792 114.391C193.984 114.38 194.182 114.359 194.386 114.328C194.672 114.286 194.958 114.224 195.255 114.135C195.531 114.057 195.813 113.958 196.094 113.833C196.354 113.724 196.615 113.594 196.88 113.438C197.125 113.297 197.37 113.141 197.62 112.958C197.953 112.719 198.287 112.443 198.62 112.125C198.917 111.844 199.214 111.526 199.511 111.182C199.526 111.161 199.537 111.135 199.537 111.115C199.537 111.089 199.526 111.068 199.505 111.052C199.49 111.031 199.464 111.026 199.443 111.026C199.417 111.026 199.396 111.036 199.375 111.052C199.057 111.365 198.74 111.641 198.427 111.891C198.078 112.161 197.729 112.401 197.386 112.609C197.141 112.76 196.896 112.891 196.656 113.005C196.401 113.13 196.146 113.234 195.891 113.328C195.672 113.406 195.453 113.474 195.24 113.526C195.011 113.583 194.787 113.63 194.568 113.667C194.339 113.703 194.115 113.729 193.891 113.74C193.662 113.755 193.438 113.76 193.214 113.755C192.922 113.745 192.641 113.724 192.359 113.688C192.073 113.646 191.792 113.594 191.521 113.526C191.234 113.458 190.958 113.375 190.693 113.281C190.412 113.182 190.146 113.078 189.886 112.964C189.302 112.698 188.781 112.401 188.349 112.12C187.49 111.563 186.974 111.068 186.958 111.052C186.943 111.036 186.917 111.026 186.896 111.026C186.87 111.026 186.849 111.031 186.828 111.052C186.813 111.068 186.802 111.094 186.802 111.115C186.797 111.141 186.807 111.161 186.823 111.182ZM186.859 111.151C186.849 111.141 186.844 111.13 186.844 111.115C186.844 111.104 186.849 111.094 186.859 111.083C186.87 111.073 186.88 111.073 186.891 111.073C186.906 111.073 186.917 111.078 186.927 111.083C186.927 111.089 186.927 111.089 186.927 111.089C186.927 111.089 187.448 111.589 188.323 112.156C188.761 112.438 189.281 112.74 189.87 113.005C190.125 113.12 190.396 113.229 190.677 113.323C190.943 113.417 191.224 113.5 191.511 113.573C191.781 113.641 192.068 113.693 192.354 113.734C192.635 113.771 192.922 113.792 193.214 113.802C193.438 113.807 193.662 113.802 193.896 113.786C194.12 113.771 194.344 113.75 194.573 113.714C194.797 113.677 195.021 113.63 195.25 113.573C195.464 113.516 195.688 113.448 195.906 113.37C196.162 113.281 196.417 113.172 196.677 113.047C196.917 112.932 197.162 112.797 197.412 112.651C197.755 112.438 198.104 112.198 198.453 111.922C198.771 111.677 199.089 111.396 199.412 111.089C199.412 111.089 199.412 111.089 199.412 111.083C199.417 111.078 199.432 111.073 199.443 111.073C199.453 111.073 199.469 111.073 199.474 111.083C199.484 111.094 199.49 111.104 199.49 111.115C199.49 111.13 199.484 111.141 199.479 111.151C199.182 111.495 198.886 111.807 198.589 112.094C198.255 112.406 197.922 112.682 197.594 112.922C197.349 113.099 197.099 113.26 196.854 113.401C196.594 113.552 196.333 113.682 196.073 113.792C195.797 113.917 195.516 114.016 195.24 114.094C194.948 114.177 194.662 114.24 194.375 114.286C194.177 114.313 193.984 114.333 193.787 114.344C193.589 114.354 193.391 114.359 193.193 114.354C192.948 114.344 192.698 114.323 192.458 114.286C192.214 114.25 191.974 114.203 191.734 114.146C191.375 114.052 191.026 113.943 190.693 113.813C190.344 113.672 190.011 113.516 189.698 113.349C189.115 113.036 188.609 112.688 188.188 112.365C187.344 111.714 186.859 111.151 186.859 111.151Z" fill="#7A5C4A"></path>
</g>
</svg><style>@media (prefers-color-scheme: light) { :root { filter: none; } }
@media (prefers-color-scheme: dark) { :root { filter: none; } }
</style></svg>